<?xml version="1.0" encoding="UTF-8"?>
<svg id="Layer_2" data-name="Layer 2" xmlns="http://www.w3.org/2000/svg" viewBox="0 0 743.33 192.2">
  <defs>
    <style>
      .cls-1 {
        fill: #e7e8ea;
        stroke-width: 0px;
      }
    </style>
  </defs>
  <g id="Layer_1-2" data-name="Layer 1">
    <g>
      <path class="cls-1" d="M96.93,67.35c9.31-16.08,49.25-24.2,64.84-5.54,6.28,7.59,9.42,18.59,9.42,33.05v59.06h-34.16v-51.9c0-7.85-1.28-13.65-3.86-17.34-2.58-3.7-6.61-5.56-12.01-5.56s-10.01,2.36-13.32,7.1c-3.31,4.71-4.97,11.13-4.97,19.17v48.53h-34.36v-51.9c0-7.85-1.28-13.65-3.83-17.34-2.59-3.7-6.61-5.56-12.11-5.56s-10.01,2.39-13.38,7.13c-3.37,4.78-5.04,11.16-5.04,19.14v48.53H0V53.01h31.02v10.95c10.1-17.52,57.16-16.95,65.91,3.39"/>
      <path class="cls-1" d="M216.42,53.51h-34.68v56.24c0,33.7,16.85,47.22,54.47,47.22s54.47-13.52,54.47-47.22v-56.24h-34.68v47.81c0,19.79-5.29,27.43-19.79,27.43s-19.79-7.64-19.79-27.43v-47.81Z"/>
      <path class="cls-1" d="M497.64,50.7h-13.05l-.24,24.71h13.05l.12,78.92h31.22l-.12-78.92h20.64l.24-24.71h-20.64c0-11.99-.12-23.01,9.58-23.01,5.12,0,9.17,2.47,9.17,2.47l10.94-22.05s-9.88-8.11-25.75-8.11c-24.69,0-35.15,16.83-35.15,50.7"/>
      <path class="cls-1" d="M689.01,51.5h-35.48v102.83h35.48v-54.12c0-2.61,2.61-20.85,21.05-20.85,11.83,0,18.44,5.61,18.44,5.61l14.83-30.07s-9.02-6.41-25.86-6.41c-14.43,0-28.46,10.62-28.46,17.84v-14.83Z"/>
      <path class="cls-1" d="M356.94,69.01c-1.41-.25-2.79-.43-4.15-.56h0l-.2-.02h0c-.72-.07-1.09-.08-1.15-.08h0c-.79-.05-1.58-.07-2.36-.07-4.32,0-7.64.77-10.01,2.31-2.34,1.54-3.52,3.72-3.52,6.53,0,3.65,4.79,6.8,14.4,9.41,3.01.84,5.39,1.54,7.17,2.04,10.95,3.28,18.62,7.27,22.94,11.99,4.35,4.69,6.53,11.15,6.53,19.32,0,10.92-4.25,19.49-12.76,25.79-8.47,6.26-20.19,9.41-35.1,9.41-6.33,0-12.59-.5-18.79-1.47-6.16-.97-12.22-2.44-18.18-4.42v-26.72c9.21,4.73,23.64,8.1,34.06,8.1,5.16,0,9.07-.7,11.69-2.11,2.61-1.41,3.92-3.52,3.92-6.33,0-4.19-5.29-7.84-15.87-10.98-2.61-.77-4.69-1.41-6.19-1.87-10.78-3.52-18.32-7.47-22.57-11.82-4.25-4.35-6.4-10.05-6.4-17.11,0-10.82,4.25-19.19,12.76-25.18,8.51-5.99,20.46-8.97,35.9-8.97,5.02,0,10.18.47,15.47,1.37,4.16.71,8.35,1.71,12.56,2.95v23.21c-9.41-2.7-15.98-4.04-20.12-4.71"/>
      <path class="cls-1" d="M476.45,140.18c-.01-7.03-1.87-13.71-5.27-19.8,3.24-5.97,5.06-12.62,5.05-19.47-.03-15.75-9.11-28.69-21.76-37.43-13.52-9.32-30.49-13.57-46.79-13.53h-7.01s-.03,24.83-.03,24.83h7.03c11.48,0,23.77,1.69,33.3,8.29,5.93,4.09,11.49,10.3,11.5,17.9-.03.08-.03.13-.02.2-17.25-10.91-53.26-20.54-69.65-1.63-5.06,5.85-7.72,13.57-7.72,21.28.04,12.87,7.4,24.75,19.64,29.32,3.58,1.33,7.35,1.99,11.16,2.04.59.01,1.2.02,1.8.02h.21c15.44-.08,31.67-3.92,44.77-12.4,0,.14,0,.3,0,.45,0,2.26-.47,4.46-1.36,6.56l-2.01,4.72,22.22,8.29,1.85-4.23c.18-.47.34-.89.51-1.35,1.68-4.5,2.58-9.24,2.58-14.06M407.52,128.34c-5.19-.08-7.56-2.69-7.85-7.52,0-6.48,4.99-7.84,9.9-7.84,10.38.08,19.8,2.31,28.88,7.62-9.42,5.65-20.01,7.96-30.94,7.74Z"/>
      <path class="cls-1" d="M641.24,140.18c-.01-7.03-1.87-13.71-5.27-19.8,3.24-5.97,5.06-12.62,5.05-19.47-.03-15.75-9.11-28.69-21.76-37.43-13.52-9.32-30.49-13.57-46.79-13.53h-7.01s-.03,24.83-.03,24.83h7.03c11.48,0,23.77,1.69,33.3,8.29,5.93,4.09,11.49,10.3,11.5,17.9-.03.08-.03.13-.02.2-17.25-10.91-53.26-20.54-69.65-1.63-5.06,5.85-7.72,13.57-7.72,21.28.04,12.87,7.4,24.75,19.64,29.32,3.58,1.33,7.35,1.99,11.16,2.04.59.01,1.2.02,1.8.02h.21c15.44-.08,31.67-3.92,44.77-12.4,0,.14,0,.3,0,.45,0,2.26-.47,4.46-1.36,6.56l-2.01,4.72,22.22,8.29,1.85-4.23c.18-.47.34-.89.51-1.35,1.68-4.5,2.58-9.24,2.58-14.06M572.3,128.34c-5.19-.08-7.56-2.69-7.85-7.52,0-6.48,4.99-7.84,9.9-7.84,10.38.08,19.8,2.31,28.88,7.62-9.42,5.65-20.01,7.96-30.94,7.74Z"/>
      <path class="cls-1" d="M683.44,166.38h5.95v25.35h-5.95v-25.35ZM664.68,181.28c-.12-1.17-.5-2.08-1.12-2.75-.63-.67-1.43-1-2.39-1s-1.74.33-2.36,1c-.61.67-.99,1.58-1.12,2.75h7ZM669.96,183.35v1.45h-12.2c.12,1.13.61,2.01,1.47,2.63.86.61,2.01.92,3.47.92.87,0,1.79-.12,2.76-.37.96-.24,1.96-.6,2.99-1.09v4.25c-.97.35-1.98.61-3.03.79-1.05.17-2.15.27-3.29.27-3.17,0-5.65-.83-7.43-2.51-1.79-1.67-2.68-3.99-2.68-6.97,0-2.7.82-4.86,2.47-6.45,1.64-1.59,3.87-2.39,6.67-2.39s4.99.82,6.52,2.46c1.53,1.64,2.29,3.98,2.29,7ZM620.92,174.35h6.44l3.65,11.99,3.68-11.99h5.98l-6.52,17.38h-6.72l-6.5-17.38ZM608.43,182.64v9.09h-5.17l-.13-2.7c-.7,1-1.56,1.74-2.55,2.2-1,.47-2.2.7-3.61.7-1.76,0-3.17-.5-4.21-1.5-1.05-1-1.57-2.34-1.57-4.01,0-1.93.76-3.36,2.28-4.29,1.51-.93,3.86-1.39,7.01-1.39h2.33v-.23c0-.95-.36-1.68-1.09-2.19-.73-.51-1.79-.76-3.17-.76-.69,0-1.46.12-2.33.36-.87.24-1.8.6-2.81,1.06l-.1-3.93c.97-.41,2.02-.71,3.14-.91,1.13-.2,2.37-.3,3.72-.3,2.85,0,4.92.71,6.25,2.12,1.32,1.41,1.99,3.63,1.99,6.66ZM601.81,183.82c-1.75,0-3.01.19-3.79.57-.77.38-1.15.99-1.15,1.83,0,.61.21,1.1.62,1.47.41.38.96.56,1.65.56,1.08,0,1.96-.37,2.65-1.09.69-.73,1.03-1.67,1.03-2.84v-.5h-1.01ZM579.64,174.08l-.32,5.13c-.24-.1-.51-.17-.81-.22-.3-.05-.65-.07-1.04-.07-1.42,0-2.49.46-3.21,1.37-.72.91-1.08,2.26-1.08,4.03v7.41h-5.95v-17.38h5.31v3.31c.6-1.29,1.34-2.24,2.21-2.86.87-.62,1.9-.92,3.09-.92.3,0,.87.06,1.68.19l.12.02ZM549.46,168.44v5.92h4.26v4.29h-4.26v5.99c0,1.28.21,2.19.63,2.72.42.52,1.14.79,2.15.79.14,0,.32-.02.54-.06.22-.04.54-.11.94-.21l.1,3.88c-.64.14-1.26.25-1.86.33-.6.07-1.19.11-1.76.11-2.36,0-4.06-.58-5.12-1.74-1.05-1.16-1.58-3.05-1.58-5.66v-6.15h-3.35v-4.29h3.68v-4.02l5.62-1.9ZM503.98,176.99c.98-.5,1.71-1.01,2.19-1.54.48-.53.71-1.1.71-1.71,0-.66-.24-1.19-.71-1.59-.48-.4-1.12-.6-1.92-.6-.75,0-1.37.19-1.85.57-.48.39-.72.87-.72,1.45,0,.48.2,1.01.59,1.59.39.57.96,1.18,1.72,1.82ZM506.7,179.73l4.13,4.16c.59-.68,1.05-1.44,1.39-2.27.33-.83.52-1.7.56-2.6h4.92c-.07,1.65-.4,3.17-1,4.56-.6,1.39-1.45,2.6-2.55,3.63l4.53,4.52h-6.56l-1.59-1.68c-.95.7-1.99,1.23-3.15,1.59-1.15.35-2.42.54-3.78.54-2.72,0-4.87-.67-6.48-2.01-1.61-1.34-2.41-3.14-2.41-5.4,0-1.27.37-2.42,1.12-3.43.75-1.01,1.85-1.87,3.31-2.57-.98-.97-1.7-1.88-2.14-2.72-.45-.85-.67-1.71-.67-2.59,0-1.75.71-3.14,2.12-4.17,1.41-1.03,3.34-1.54,5.79-1.54s4.29.5,5.66,1.51c1.36,1.01,2.04,2.39,2.04,4.17,0,1.34-.44,2.55-1.33,3.61-.9,1.07-2.2,1.97-3.92,2.71ZM502.18,181.73c-.64.48-1.11.97-1.41,1.46-.3.5-.45,1.03-.45,1.61,0,.94.37,1.73,1.1,2.41.74.67,1.61,1.01,2.62,1.01.65,0,1.25-.1,1.8-.29.55-.19,1.09-.51,1.62-.94l-5.27-5.26ZM472.27,174.08l-.32,5.13c-.24-.1-.51-.17-.81-.22-.3-.05-.65-.07-1.04-.07-1.42,0-2.49.46-3.21,1.37-.72.91-1.08,2.26-1.08,4.03v7.41h-5.95v-17.38h5.31v3.31c.6-1.29,1.34-2.24,2.21-2.86.87-.62,1.9-.92,3.09-.92.31,0,.87.06,1.68.19l.12.02ZM426.84,174.35h5.95v8.76c0,1.36.24,2.38.73,3.05.48.67,1.22,1.01,2.21,1.01,1.12,0,1.97-.46,2.55-1.37.58-.91.87-2.25.87-4.01v-7.44h5.95v17.38h-5.4v-3.26c-.69,1.16-1.56,2.04-2.64,2.65-1.08.61-2.29.91-3.66.91-2.14,0-3.76-.65-4.88-1.96-1.12-1.31-1.68-3.21-1.68-5.71v-10.01ZM403.4,173.88c3.14,0,5.59.81,7.36,2.43,1.76,1.62,2.65,3.86,2.65,6.73s-.89,5.08-2.65,6.7c-1.77,1.62-4.22,2.43-7.36,2.43s-5.57-.81-7.33-2.43c-1.76-1.62-2.64-3.85-2.64-6.7s.88-5.12,2.64-6.73c1.76-1.62,4.2-2.43,7.33-2.43ZM403.4,178.04c-1.13,0-2.03.46-2.74,1.36-.7.91-1.05,2.11-1.05,3.61s.35,2.66,1.05,3.57c.7.91,1.61,1.36,2.74,1.36s2.06-.45,2.75-1.35c.69-.9,1.03-2.09,1.03-3.59s-.34-2.72-1.03-3.62c-.69-.9-1.61-1.35-2.75-1.35ZM376.67,168.44v5.92h4.26v4.29h-4.26v5.99c0,1.28.21,2.19.63,2.72.42.52,1.14.79,2.15.79.14,0,.32-.02.54-.06.22-.04.54-.11.94-.21l.1,3.88c-.64.14-1.26.25-1.86.33-.6.07-1.19.11-1.76.11-2.36,0-4.06-.58-5.12-1.74-1.05-1.16-1.58-3.05-1.58-5.66v-6.15h-3.35v-4.29h3.68v-4.02l5.62-1.9Z"/>
    </g>
  </g>
</svg>