<?xml version="1.0" encoding="UTF-8" standalone="no"?>
<!DOCTYPE svg PUBLIC "-//W3C//DTD SVG 1.1//EN" "http://www.w3.org/Graphics/SVG/1.1/DTD/svg11.dtd">
<svg width="100%" height="100%" viewBox="0 0 988 350" version="1.1" xmlns="http://www.w3.org/2000/svg" xmlns:xlink="http://www.w3.org/1999/xlink" xml:space="preserve" xmlns:serif="http://www.serif.com/" style="fill-rule:evenodd;clip-rule:evenodd;stroke-linejoin:round;stroke-miterlimit:2;">
    <rect id="Artboard1" x="0" y="0" width="987.71" height="349.37" style="fill:none;"/>
    <clipPath id="_clip1">
        <rect id="Artboard11" serif:id="Artboard1" x="0" y="0" width="987.71" height="349.37"/>
    </clipPath>
    <g clip-path="url(#_clip1)">
        <g transform="matrix(1,0,0,1,-0.17,-8.61)">
            <path d="M12.849,110.395C19.126,110.694 24.031,108.487 27.273,116.504C36.364,138.975 16.622,186.175 49.114,193.974C54.347,195.23 78.377,194.336 85.046,194.346L170.432,194.482C171.02,189.532 173.97,179.608 177.152,176.071C185.657,166.618 200.243,151.342 210.63,144.356C212.851,144.471 215.834,144.071 218.113,143.833C195.216,163.929 195.178,163.52 195.193,194.485C212.259,194.654 214.876,196.472 228.053,185.687C227.998,180.219 227.936,174.867 227.716,169.403C229.729,172.196 233.285,175.931 235.693,178.379C242.986,171.494 254.368,160.082 263.867,158.965C285.341,156.511 282.497,186.47 270.178,195.382C260.762,202.193 255.7,213.374 243.492,214.8C230.659,213.781 228.15,201.757 227.863,191.045C216.787,201.598 206.014,211.459 195.229,222.349C195.225,238.046 195.54,254.102 195.124,269.784C194.634,288.289 186.598,294.583 174.049,305.951L154.695,323.399L146.842,323.406C150.888,320.246 154.813,316.721 158.63,313.285C162.301,309.98 166.25,306.301 168.071,301.599C173.117,288.569 169.467,239.718 170.399,222.021C161.804,221.654 151.494,221.917 142.798,221.919L92.496,221.937C75.75,221.947 55.132,224.749 41.851,212.997C17.331,191.299 24.413,159.35 23.183,130.487C22.839,122.42 18.9,115.503 12.849,110.395M239.347,182.63C243.643,186.913 250.016,194.909 254.969,197.216C263.993,200.844 264.884,191.642 262.128,185.554C259.502,179.753 255.916,178.294 249.726,178.43C245.285,179.489 243.22,180.178 239.347,182.63M456.236,169.595C472.717,168.795 484.17,174.134 490.576,189.823C494.93,178.659 501.692,170.515 514.462,169.545C523.074,169.045 532.884,171.649 539.517,177.247C549.519,185.689 548.363,200.322 548.339,212.179L548.241,241.571C548.174,256.904 546.199,266.263 558.973,277.336C552.577,277.136 531.432,278.835 527.372,275.225C525.166,273.263 523.919,270.517 523.245,267.689C521.645,260.964 521.995,253.496 522,246.612C522.01,232.537 522.977,217.109 522.07,203.193C521.779,198.715 520.196,194.323 516.742,191.316C513.66,188.633 509.204,187.456 505.173,187.783C500.924,188.127 496.671,190.088 493.914,193.388C492.439,195.153 491.852,196.796 491.58,199.076C490.656,206.802 491.563,215.282 491.562,223.102C491.561,235.021 490.557,247.671 491.723,259.489C492.404,266.384 496.31,272.297 501.596,276.608L501.153,277.071C497.059,277.614 474.496,277.827 471.697,276.275C459.059,269.265 468.745,213.897 464.586,198.925C463.494,194.997 461.045,191.275 457.423,189.275C453.558,187.142 448.848,187.305 444.714,188.516C439.55,190.028 436.66,193.376 434.175,197.972L434.171,236.854C434.16,253.664 431.389,265.484 445.357,277.4C410.091,275.892 408.307,284.858 408.348,242.97L408.401,209.057C408.413,202.269 408.595,194.828 408.087,188.095C407.412,179.149 405.35,175.45 398.631,169.833C416.496,172.324 429.496,164.453 433.697,189.616C437.59,178.508 445.017,172.262 456.236,169.595" style="fill:rgb(215,26,33);fill-rule:nonzero;"/>
            <path d="M137.463,8.625C138.341,13.814 139.992,19.905 142.787,24.378C148.679,33.805 166.509,44.832 152.521,55.843C150.437,57.483 146.92,61.461 145.156,63.525C143.286,59.801 140.729,57.345 137.912,54.348C137.97,63.794 139.741,80.24 134.544,87.312C151.862,104.461 150.887,123.062 150.526,145.199C150.472,148.476 148.074,153.086 145.382,155.737C138.562,162.45 131.812,171.027 123.581,176.014C114.39,178.88 92.043,176.976 81.403,177.492C73.22,177.888 65.778,177.448 57.801,177.091C53.72,176.908 46.127,171.716 44.781,167.687C43.049,160.279 44.086,151.633 43.615,143.885C60.205,160.727 72.171,141.752 83.953,129.258C92.87,120.192 101.774,110.673 110.603,101.487C101.093,93.049 91.49,84.242 81.112,77.059C75.756,73.352 68.597,73.484 65.768,79.709C61.211,89.737 61.969,114.486 64.82,124.36C59.554,118.59 52.763,113.029 48.15,106.993C43.033,99.886 44.09,89.607 49.491,83.038C61.543,68.38 72.464,67.492 89.596,67.602C109.073,67.727 114.254,70.866 129.468,82.385C132.886,76.199 130.727,58.951 131.661,50.269C114.851,27.965 119.376,26.601 137.463,8.625M69.579,152.031C77.856,152.657 89.359,152.362 97.9,152.346C106.244,152.369 136.664,154.184 141.63,149.295C142.981,147.965 143.517,146.203 143.493,144.338C143.361,133.966 122.967,113.291 115.534,106.015C106.25,115.298 97.302,124.855 88.136,134.232C82.459,140.039 76.059,147.494 69.579,152.031M286.548,142.628C300.492,142.301 315.048,142.315 329.012,142.547C354.079,142.962 382.565,137.439 392.738,166.736C381.234,159.995 371.708,157.672 358.489,157.466C347.344,157.293 336.178,157.449 325.038,157.185C329.294,165.267 328.713,179.4 328.091,188.479C351.008,187.903 359.905,186.977 373.845,207.046C360.06,199.212 344.081,202.145 328.414,201.843L328.445,228.373C328.724,269.895 325.728,262.106 368.581,262.649C379.652,262.789 386.786,261.281 394.644,253.114L394.602,255.494C394.277,270.319 387.71,277.464 372.219,277.493C350.528,277.533 328.722,277.872 307.065,277.289C305.432,277.245 302.503,274.417 301.783,272.909C297.344,262.671 298.882,250.996 298.577,240.133C298.255,220.563 298.449,201.443 298.036,181.953C297.678,165.098 298.906,155.931 286.548,142.628M717.918,170.141C728.185,169.076 737.8,171.357 746.197,177.496C757.375,185.67 756.205,196.67 756.159,209.011L756.021,240.866C755.96,255.812 754.147,267.172 767.386,277.397C753.07,276.847 732.553,282.815 731.18,264.258C724.262,275.145 715.227,279.057 702.425,276.876C691.144,274.845 682.239,268.689 680.324,256.547C676.943,235.106 692.046,222.719 709.941,215.138C720.192,210.796 735.088,205.229 732.883,191.127C731.558,182.649 720.409,180.669 713.376,181.917C705.19,183.369 700.843,189.4 696.53,195.782C696.988,190.679 696.782,182.875 696.792,177.567C703.075,173.335 710.554,171.386 717.918,170.141M706.94,261.553C715.474,267.38 723.638,266.026 730.699,258.758C729.991,248.426 730.799,236.74 730.636,226.329C730.604,224.281 730.756,215.307 730.369,213.882L730.208,214.049C727.736,216.581 722.632,219.847 719.512,221.878C708.802,228.85 702.923,236.917 702.616,249.985C702.513,254.389 704.015,258.228 706.94,261.553M874.854,169.688C885.082,168.9 897.298,171.215 904.589,178.404C921.725,195.301 904.343,216.488 888.084,225.311C878.66,230.425 871.162,232.6 863.913,240.378C866.894,262.383 886.856,273.873 905.302,258.307C907.151,256.747 908.194,253.807 910.445,252.241L911.005,252.633L911.024,255.363C910.796,259.865 910.99,264.814 911.072,269.352C904.501,275.199 893.141,276.854 884.646,277.321C834.265,280.089 821.008,219.767 846.273,185.611C853.316,176.09 863.37,171.091 874.854,169.688M861.896,229.106C864.602,226.523 867.164,224.344 870.376,222.387C879.866,215.952 885.979,208.478 888.197,196.979C890.328,185.935 888.13,177.425 874.992,178.41C860.442,185.208 861.586,215.294 861.896,229.106M0.171,198.206C4.447,198.645 12.297,196.995 14.183,202.312C23.931,229.787 7.682,262.883 30.525,286.627C39.928,296.632 53.047,303.607 66.97,303.818C86.382,304.229 105.328,303.848 124.786,303.968C135.465,304.034 143.079,297.78 144.082,286.788C144.897,277.858 133.387,270.306 127.524,263.877C126.695,258.305 127.325,237.746 127.48,231.26C132.168,235.39 139.595,242.338 143.599,247.003C146.588,251.126 148.832,256.864 148.934,261.975C148.962,277.732 151.788,291.539 140.863,304.24C121.057,327.266 113.546,332.097 83.187,330.742C62.147,329.803 52.455,332.86 33.483,317.004C5.31,293.459 11.183,263.208 10.77,230.868C10.72,215.982 12.728,208.848 0.171,198.206M214.781,217.319C217.387,219.31 221.838,223.732 224.306,226.145C237.613,239.153 235.906,249.252 235.818,266.162L235.841,291.989C235.784,328.737 212.927,352.42 176.336,357.465C168.933,358.486 157.24,357.687 149.435,357.669C145.07,354.102 140.322,349.754 136.033,346.007C130.643,341.516 125.082,336.468 119.777,331.823C121.532,331.937 123.231,332.011 124.99,332.02L155.57,332.078C179.758,332.085 189.188,331.561 208.226,313.099C218.245,303.383 230.65,288.621 231.144,273.975C231.474,264.2 221.432,256.156 214.734,249.436C214.847,239.112 214.349,227.433 214.781,217.319M948.271,169.59C962.499,169.097 968.316,170.176 980.906,177.626C980.86,183.483 980.732,189.431 981.13,195.267C974.698,185.46 967.693,179.71 955.331,181.068C949.975,181.656 943.597,186.283 944.948,192.187C947.592,201.729 960.491,206.878 968.694,212.251C985.888,223.515 994.199,241.955 982.274,260.698C976.6,269.616 965.921,274.898 955.194,276.825C943.31,278.438 933.107,275.358 922.855,269.708L922.858,250.455C925.496,255.214 928.759,260.165 933.526,263.051C945.863,270.523 967.063,261.535 963.962,245.446C962.13,235.938 950.276,231.343 942.943,226.618C933.418,220.587 925.845,213.958 923.181,202.576C918.778,183.765 930.827,173.422 948.271,169.59M809.277,145.916C809.881,148.552 809.279,165.845 809.275,170.035L833.144,169.974L833.036,186.218C821.341,180.864 820.166,183.332 809.177,182.323L809.202,232.979C809.185,241.771 808.914,251.282 809.598,260.028C810.147,267.047 814.619,272.94 820.096,277.231C815.02,277.426 808.759,277.215 803.596,277.178C798.965,277.237 794.991,277.355 790.376,276.863C780.863,269.927 783.171,247.748 783.13,236.713L783.246,182.123C777.16,181.93 770.86,181.616 764.801,182.024C786.595,170.978 795.018,165.526 809.277,145.916M613.037,169.978C635.131,169.673 645.993,166.319 647.854,192.637C649.408,185.868 652.255,179.219 657.862,174.886C666.949,167.863 677.419,168.827 684.508,177.709L684.593,196.358C676.754,187.017 661.592,185.694 652.689,193.9C646.349,199.742 648.281,216.111 648.344,224.465C648.428,234.253 648.474,244.131 648.412,253.916C648.346,264.31 651.307,270.611 659.145,277.389C624.501,275.149 622.079,285.625 622.362,241.785L622.534,208.03C622.601,193.173 625.388,180.294 613.037,169.978M216.715,8.615L216.848,8.667L217.009,9.223C210.599,15.973 200.475,22.144 197.489,31.387C193.69,43.147 195.436,59.003 195.292,71.378C195.096,88.302 195.914,105.052 195.306,121.946C194.65,140.183 185.005,148.769 172.573,159.898L155.173,175.415C152.94,175.431 150.831,175.626 148.609,175.81C148.295,173.034 168.157,159.95 169.583,151.248C170.998,142.613 170.601,135.771 170.597,127.016L170.52,84.531C170.485,72.408 169.003,49.829 176.137,41.057C184.2,31.146 200.715,17.36 210.402,8.619L216.715,8.615ZM562.249,169.889C586.214,171.172 597.307,165.518 597.668,197.782C597.708,216.827 597.408,235.868 597.547,254.913C597.598,261.786 599.707,269.156 604.927,273.903C605.829,274.724 607.216,276.02 607.653,277.128L606.747,277.262C572.118,275.952 571.35,283.301 571.326,241.657L571.366,207.157C571.449,191.944 574.586,180.789 562.249,169.889" style="fill:rgb(215,26,33);fill-rule:nonzero;"/>
            <path d="M55.774,234.285C57.186,234.753 67.344,245.265 69.344,247.09C82.825,259.39 64.97,271.583 55.989,279.686C55.344,279.236 52.744,272.494 51.346,270.602C46.838,264.501 41.526,259.16 36.301,253.757L55.774,234.285ZM95.98,234.323C97.616,234.797 107.791,245.247 109.932,247.268C122.893,259.495 104.529,272.117 96.019,279.893C94.61,271.736 82.32,259.549 76.628,253.707L95.98,234.323ZM583.426,135.536C590.559,134.965 596.816,140.258 597.438,147.39C598.06,154.522 592.814,160.819 585.69,161.492C578.494,162.171 572.122,156.858 571.494,149.654C570.866,142.45 576.222,136.114 583.426,135.536" style="fill:rgb(215,26,33);fill-rule:nonzero;"/>
        </g>
    </g>
</svg>
