<?xml version="1.0" encoding="UTF-8" standalone="no"?>
<!DOCTYPE svg PUBLIC "-//W3C//DTD SVG 1.1//EN" "http://www.w3.org/Graphics/SVG/1.1/DTD/svg11.dtd">
<svg width="100%" height="100%" viewBox="0 0 934 178" version="1.1" xmlns="http://www.w3.org/2000/svg" xmlns:xlink="http://www.w3.org/1999/xlink" xml:space="preserve" xmlns:serif="http://www.serif.com/" style="fill-rule:evenodd;clip-rule:evenodd;stroke-linejoin:round;stroke-miterlimit:2;">
    <g id="Artboard1" transform="matrix(0.778333,0,0,0.2225,0,0)">
        <rect x="0" y="0" width="1200" height="800" style="fill:none;"/>
        <g id="Layer_x0020_1" transform="matrix(0.040898,0,0,0.143066,7.016966,17.946599)">
            <g id="layer1">
                <g id="g7026">
                    <g id="g6656">
                        <path id="path6658" d="M24222,2222C23640,1918 23157,1895 22931,1895L22145,1895L22103,1821L23027,1821C23091,1821 23857,1810 24308,1931C24872,2082 25262,2378 25338,2428C25414,2477 26443,3214 26443,3214C26443,3214 26270,3391 26101,3391C25941,3391 25768,3268 25768,3268C25768,3268 25217,2871 25133,2812C25049,2753 24614,2429 24221,2223L24222,2222Z" style="fill:rgb(73,153,167);"/>
                    </g>
                    <g id="g6660">
                        <path id="path6662" d="M24180,2803C24569,3061 24798,3250 24873,3304C24947,3358 25293,3605 25293,3605C25293,3605 25452,3729 25647,3729C25795,3729 25977,3557 25977,3557C25977,3557 25151,2974 25076,2922C25001,2869 24736,2660 24242,2530C23829,2421 23242,2424 23203,2424L22451,2424L22495,2500C22495,2500 23062,2501 23105,2501C23196,2501 23770,2529 24180,2801L24180,2803Z" style="fill:rgb(73,153,167);"/>
                    </g>
                    <g id="g6664">
                        <path id="path6666" d="M24307,1613C24808,1882 25304,2254 25396,2321C25489,2388 26242,2927 26242,2927C26242,2927 26418,3046 26579,3046C26736,3046 26914,2872 26914,2872C26914,2872 25712,2007 25604,1931C25496,1855 25063,1500 24368,1335C23824,1197 22916,1213 22853,1213L21753,1213L21797,1289L22757,1289C22956,1289 23723,1299 24306,1613L24307,1613Z" style="fill:rgb(73,153,167);"/>
                    </g>
                    <g id="g6668">
                        <path id="path6670" d="M28663,1601C28515,1575 28320,1563 28320,1563L28054,1639L27902,1512C27902,1512 28219,1537 28307,1550C28383,1550 28358,1512 28319,1435C28281,1359 28193,1359 28193,1359L27394,1359C27394,1359 27251,1360 27087,1322C26922,1284 26857,1160 26857,1160C26793,1307 27047,1478 27047,1478L27838,2045C27940,2109 28028,2058 28028,2058C28028,2058 28231,1956 28345,1931C28447,1906 28763,1893 28801,1906C28890,1919 28991,2008 28991,2008C29042,1652 28813,1629 28662,1601L28663,1601Z" style="fill:rgb(48,61,106);"/>
                    </g>
                    <g id="g6672">
                        <path id="path6674" d="M24463,426C25014,668 25802,1257 25917,1341C26033,1425 27168,2238 27168,2238C27168,2238 27346,2365 27511,2365C27676,2365 27839,2199 27839,2199C27839,2199 26235,1046 26119,963C26003,880 25471,432 24482,171C23805,-8 22641,0 22506,0L21054,0L21099,77L22430,77C22766,77 23735,105 24464,426L24463,426Z" style="fill:rgb(48,61,106);"/>
                    </g>
                    <g id="g6676">
                        <path id="path6678" d="M24379,1018C23784,720 23050,683 22623,683L21448,683L21404,607L22681,607C22819,607 23786,597 24426,742C25164,910 25799,1394 25865,1440C25928,1484 27385,2529 27385,2529C27385,2529 27219,2700 27040,2700C26876,2700 26698,2573 26698,2573C26698,2573 25750,1893 25658,1828C25567,1763 24933,1294 24379,1017L24379,1018Z" style="fill:rgb(48,61,106);"/>
                    </g>
                    <g id="g6680">
                        <path id="path6682" d="M3053,4395C3053,4395 2964,4375 2856,4375C2616,4375 2438,4481 2389,4641C2378,4671 2375,4738 2375,4772C2375,4975 2517,5089 2691,5089C2724,5089 2779,5081 2826,5063C2951,5017 3053,4933 3053,4805L3053,4395ZM3218,5303C3202,5303 3132,5307 3103,5274C3075,5248 3075,5209 3075,5177L3075,5075C2970,5230 2793,5335 2527,5329C2109,5317 2017,4989 2017,4808C2017,4744 2023,4622 2118,4492C2266,4284 2573,4216 2847,4216C2964,4216 3053,4233 3053,4233L3053,4050C3053,3985 3053,3874 2988,3796C2932,3731 2829,3682 2646,3682C2361,3682 2174,3843 2174,3843L2208,3627C2208,3627 2401,3496 2711,3496C2970,3496 3149,3567 3254,3673C3375,3799 3405,3915 3405,4147L3405,5303L3218,5303Z" style="fill:rgb(86,82,82);"/>
                    </g>
                    <g id="g6684">
                        <path id="path6686" d="M4370,3738C4070,3795 4037,4032 4037,4199L4037,5303L3685,5303L3685,3725C3685,3573 3585,3541 3585,3541L3933,3541C4010,3541 4037,3584 4037,3632L4037,3728C4048,3696 4174,3528 4407,3520C4483,3517 4570,3524 4617,3552L4663,3774C4611,3745 4513,3710 4369,3737L4370,3738Z" style="fill:rgb(86,82,82);"/>
                    </g>
                    <g id="g6688">
                        <path id="path6690" d="M6059,5303C6047,5303 5974,5307 5941,5274C5915,5248 5915,5200 5915,5177L5915,5075C5820,5230 5649,5328 5414,5328C5230,5328 5105,5286 4996,5168C4881,5040 4852,4881 4852,4666L4852,3699C4852,3574 4744,3541 4747,3542L5075,3542C5156,3542 5205,3583 5205,3644L5205,4706C5205,5020 5298,5109 5518,5109C5699,5109 5896,4987 5896,4800L5896,3543L6245,3543L6245,5304L6060,5304L6059,5303Z" style="fill:rgb(86,82,82);"/>
                    </g>
                    <g id="g6692">
                        <path id="path6694" d="M10878,5303C10805,5303 10761,5272 10761,5183L10761,3105C10761,2974 10660,2924 10660,2924L11000,2924C11101,2924 11146,2973 11146,3046L11146,5304L10876,5304L10878,5303Z" style="fill:rgb(86,82,82);"/>
                    </g>
                    <g id="g6696">
                        <path id="path6698" d="M15674,3688C15319,3684 15257,4050 15257,4440C15257,4925 15379,5157 15674,5157C15934,5157 16056,4857 16056,4440C16056,4100 16024,3692 15674,3688M15667,5329C15091,5326 14884,4969 14884,4432C14884,3942 15091,3501 15667,3504C16250,3508 16428,3948 16428,4432C16428,4927 16148,5333 15667,5329Z" style="fill:rgb(86,82,82);"/>
                    </g>
                    <g id="g6700">
                        <path id="path6702" d="M20929,5175C20804,5281 20639,5333 20455,5335L20436,5335C20160,5335 20009,5261 19943,5223L19893,5014C19893,5014 20134,5172 20385,5172C20627,5172 20765,5042 20749,4827C20724,4484 19930,4566 19930,3998C19930,3686 20184,3522 20496,3518L20516,3518C20838,3518 20957,3631 20957,3631L21006,3826C21006,3826 20868,3690 20592,3690C20295,3690 20266,3928 20272,3994C20291,4165 20421,4206 20654,4308C20897,4412 21089,4546 21089,4804C21089,4968 21026,5094 20931,5175L20929,5175Z" style="fill:rgb(86,82,82);"/>
                    </g>
                    <g id="g6704">
                        <path id="path6706" d="M21405,5303C21340,5303 21305,5269 21305,5211L21305,3700C21305,3584 21195,3542 21195,3542L21554,3542C21626,3542 21654,3580 21654,3647L21654,5303L21405,5303Z" style="fill:rgb(86,82,82);"/>
                    </g>
                    <g id="g6708">
                        <path id="path6710" d="M11746,3542C11813,3542 11847,3574 11847,3633L11847,3771C11943,3615 12114,3516 12348,3516C12532,3516 12657,3558 12766,3677C12881,3806 12910,3964 12910,4180L12910,5304L12700,5304C12610,5304 12558,5243 12558,5159L12558,4142C12558,3828 12464,3739 12246,3739C12065,3739 11867,3861 11867,4049L11867,5305L11518,5305L11518,3696C11518,3572 11421,3544 11421,3544L11747,3544L11746,3542Z" style="fill:rgb(86,82,82);"/>
                    </g>
                    <g id="g6712">
                        <path id="path6714" d="M22919,4395C22919,4395 22830,4375 22721,4375C22481,4375 22303,4481 22254,4641C22243,4671 22241,4738 22241,4772C22241,4975 22382,5089 22557,5089C22590,5089 22646,5081 22692,5063C22817,5017 22919,4933 22919,4805L22919,4395ZM23084,5303C23067,5303 22999,5307 22968,5274C22943,5248 22943,5209 22943,5177L22943,5075C22837,5230 22659,5335 22393,5329C21975,5317 21884,4989 21884,4808C21884,4744 21889,4622 21986,4492C22133,4284 22440,4216 22713,4216C22832,4216 22921,4233 22921,4233L22921,4050C22921,3985 22931,3882 22858,3795C22805,3728 22693,3680 22503,3682C22177,3688 22042,3843 22042,3843L22077,3627C22077,3627 22269,3496 22579,3496C22838,3496 23016,3567 23121,3673C23243,3799 23272,3915 23272,4147L23272,5303L23084,5303Z" style="fill:rgb(86,82,82);"/>
                    </g>
                    <g id="g6716">
                        <path id="path6718" d="M7606,4135C7606,4035 7593,3889 7513,3805C7457,3746 7369,3705 7243,3705C6901,3705 6862,4160 6862,4405L6862,4431C6865,4778 6964,5122 7250,5122C7405,5122 7513,5062 7606,4945L7606,4134L7606,4135ZM7715,5303C7646,5303 7622,5280 7622,5216L7622,5129C7490,5247 7362,5325 7169,5328L7162,5328C6659,5328 6484,4903 6484,4431C6484,4077 6620,3503 7179,3503C7514,3503 7607,3705 7607,3705L7607,3105C7607,2979 7503,2914 7503,2914L7776,2914C7881,2914 7959,2987 7959,3066L7959,5303L7715,5303Z" style="fill:rgb(86,82,82);"/>
                    </g>
                    <g id="g6720">
                        <path id="path6722" d="M9250,4395C9250,4395 9162,4375 9053,4375C8813,4375 8635,4481 8586,4641C8576,4671 8572,4738 8572,4772C8572,4975 8713,5089 8888,5089C8921,5089 8977,5081 9023,5063C9148,5017 9250,4933 9250,4805L9250,4395ZM9414,5303C9398,5303 9328,5307 9299,5274C9272,5248 9272,5209 9272,5177L9272,5075C9167,5230 8990,5335 8723,5329C8306,5317 8213,4989 8213,4808C8213,4744 8219,4622 8315,4492C8463,4284 8769,4216 9043,4216C9162,4216 9250,4233 9250,4233L9250,4050C9250,3985 9250,3874 9185,3796C9130,3731 9026,3682 8844,3682C8559,3682 8371,3843 8371,3843L8406,3627C8406,3627 8599,3496 8908,3496C9168,3496 9346,3567 9451,3673C9572,3799 9602,3915 9602,4147L9602,5303L9414,5303Z" style="fill:rgb(86,82,82);"/>
                    </g>
                    <g id="g6724">
                        <path id="path6726" d="M14287,4135C14287,4035 14274,3889 14195,3805C14140,3746 14051,3705 13925,3705C13583,3705 13543,4160 13543,4405L13543,4431C13547,4778 13645,5122 13932,5122C14088,5122 14194,5062 14287,4945L14287,4134L14287,4135ZM14397,5303C14328,5303 14303,5280 14303,5216L14303,5129C14172,5247 14043,5325 13849,5328L13840,5328C13340,5328 13165,4903 13165,4431C13165,4077 13300,3503 13859,3503C14194,3503 14286,3705 14286,3705L14286,3105C14286,2979 14183,2914 14183,2914L14457,2914C14562,2914 14639,2987 14639,3066L14639,5303L14397,5303Z" style="fill:rgb(86,82,82);"/>
                    </g>
                    <g id="g6728">
                        <path id="path6730" d="M16904,3542C16972,3542 17006,3574 17006,3633L17006,3771C17101,3615 17272,3516 17507,3516C17691,3516 17815,3558 17924,3677C18039,3806 18069,3964 18069,4180L18069,5304L17858,5304C17769,5304 17717,5243 17717,5159L17717,4142C17717,3828 17623,3739 17404,3739C17223,3739 17026,3861 17026,4049L17026,5305L16676,5305L16676,3696C16676,3572 16579,3544 16579,3544L16903,3544L16904,3542Z" style="fill:rgb(86,82,82);"/>
                    </g>
                    <g id="g6732">
                        <path id="path6734" d="M1454,5315C1312,5334 1227,5341 1089,5341C727,5341 497,5232 322,5061C66,4807 0,4385 0,4121C0,3908 36,3490 378,3168C536,3020 782,2894 1151,2894C1480,2894 1638,2988 1638,2988L1699,3206C1686,3200 1516,3102 1233,3102C652,3102 408,3501 408,4122C408,5061 865,5135 1124,5135C1308,5135 1382,5106 1382,5106L1382,4173L1180,4173C1044,4173 986,4194 986,4194L1015,4005L1761,4005L1761,5248C1639,5280 1574,5299 1452,5315L1454,5315Z" style="fill:rgb(86,82,82);"/>
                    </g>
                    <g id="g6736">
                        <path id="path6738" d="M18683,4423C18683,4423 18772,4442 18881,4442C19272,4442 19361,4250 19379,4028C19394,3830 19341,3633 19035,3671C18757,3706 18683,3887 18683,4113C18683,4300 18684,4423 18684,4423M19210,3497C19627,3527 19720,3838 19720,4018C19720,4083 19714,4205 19618,4334C19470,4543 19164,4610 18891,4610C18772,4610 18684,4594 18684,4594L18684,4757C18684,5065 18848,5148 19119,5144C19422,5140 19662,4953 19662,4953L19628,5169C19628,5169 19353,5329 19043,5329C18783,5329 18587,5260 18483,5152C18354,5018 18332,4838 18332,4606L18332,4221C18332,3893 18467,3444 19210,3497Z" style="fill:rgb(86,82,82);"/>
                    </g>
                </g>
            </g>
        </g>
    </g>
</svg>
