<?xml version="1.0" encoding="UTF-8" standalone="no"?>
<!DOCTYPE svg PUBLIC "-//W3C//DTD SVG 1.1//EN" "http://www.w3.org/Graphics/SVG/1.1/DTD/svg11.dtd">
<svg width="100%" height="100%" viewBox="0 0 934 242" version="1.1" xmlns="http://www.w3.org/2000/svg" xmlns:xlink="http://www.w3.org/1999/xlink" xml:space="preserve" xmlns:serif="http://www.serif.com/" style="fill-rule:evenodd;clip-rule:evenodd;stroke-linejoin:round;stroke-miterlimit:2;">
    <g id="Artboard1" transform="matrix(0.778333,0,0,0.3025,0,0)">
        <rect x="0" y="0" width="1200" height="800" style="fill:none;"/>
        <g transform="matrix(2.964915,0,0,7.628735,7.016966,25.108709)">
            <path d="M287.639,33.633C287.639,59.214 313.404,62.639 313.404,98.278C313.404,98.278 339.183,99.11 339.183,81.164C339.183,62.639 285.317,31.214 296.391,11.888C287.933,20.548 287.639,33.632 287.639,33.632" style="fill:rgb(167,169,172);fill-rule:nonzero;"/>
        </g>
        <g transform="matrix(2.964915,0,0,7.628735,7.016966,25.108709)">
            <path d="M297.701,10.478C286.211,30.794 340.445,63.042 340.445,80.152C340.445,86.031 339.84,90.104 335.565,92.641C335.565,92.641 356.104,83.24 358.991,70.59L358.991,64.256C355.036,43.983 317.417,28.315 317.036,12.493C316.817,3.627 325.433,1.178 325.433,1.178C324.195,1.094 322.955,1.052 321.714,1.051C303.676,1.047 297.701,10.478 297.701,10.478" style="fill:rgb(167,169,172);fill-rule:nonzero;"/>
        </g>
        <g transform="matrix(2.964915,0,0,7.628735,7.016966,25.108709)">
            <path d="M371.203,6.855C357.716,6.855 332.945,1.559 328.302,1.612C319.033,1.73 314.057,13.036 321.955,21.652C321.955,21.652 325.923,17.215 329.721,15.918C334.995,14.105 341.11,14.552 348.719,14.998C356.652,15.458 366.223,15.927 378.164,13.829C392.72,11.275 397.613,5.598 400,0C394.161,4.836 384.695,6.855 371.203,6.855" style="fill:rgb(181,152,90);fill-rule:nonzero;"/>
        </g>
        <g transform="matrix(2.964915,0,0,7.628735,7.016966,25.108709)">
            <path d="M378.703,14.814C366.757,16.913 357.195,16.448 349.258,15.984C341.645,15.537 335.53,15.095 330.256,16.908C326.454,18.2 322.608,22.335 322.608,22.335C322.608,22.335 332.236,32.402 338.005,36.353C341.719,24.416 365.233,29.116 374.844,25.682C386.955,21.359 392.041,14.083 393.964,9.264L393.907,9.242C390.573,11.595 385.781,13.57 378.703,14.814" style="fill:rgb(181,152,90);fill-rule:nonzero;"/>
        </g>
        <g transform="matrix(2.964915,0,0,7.628735,7.016966,25.108709)">
            <path d="M375.479,26.479C365.128,29.795 350.813,27.268 342.985,31.854C339.722,33.759 338.798,37.071 338.798,37.071C338.798,37.071 346.152,42.993 352.951,50.747C352.951,48.924 353.577,46.003 355.947,43.633C360.152,39.428 383.066,36.51 387.341,19.593C384.091,23.312 377.305,25.892 375.479,26.479" style="fill:rgb(181,152,90);fill-rule:nonzero;"/>
        </g>
        <g transform="matrix(19.904721,0,0,-51.214901,-2460.144391,38781.948125)">
            <g>
                <path d="M162.768,749.466L164.293,753.483L163.374,753.483L161.847,749.466L162.768,749.466ZM149.165,749.466L150.692,753.483L149.773,753.483L148.246,749.466L149.165,749.466ZM142.487,749.466L144.013,753.483L143.094,753.483L141.567,749.466L142.487,749.466ZM161.876,753.483L160.697,750.35L159.971,750.35L160.097,750.687C160.242,751.073 160.048,751.386 159.66,751.386L157.103,751.386C156.945,751.386 156.781,751.334 156.631,751.246L157.471,753.483L156.554,753.483L155.376,750.35L154.774,750.35L155.18,751.428L154.261,751.428L153.856,750.35L151.602,750.35L151.883,751.098L150.828,751.098L150.184,749.384L149.313,749.385C149.238,749.128 149.267,748.91 149.395,748.736C149.525,748.562 149.779,748.497 150.045,748.497C150.3,748.497 150.548,748.55 150.791,748.726C151.033,748.901 151.142,749.128 151.24,749.384L151.271,749.466L161.296,749.466L161.296,749.493L162.794,753.483L161.876,753.483ZM159.032,750.296L156.27,750.296C156.336,750.47 156.427,750.612 156.6,750.612L158.835,750.612C159.009,750.612 159.098,750.47 159.032,750.296M145.638,750.259C145.136,750.144 144.807,749.672 144.715,749.385C144.64,749.128 144.669,748.91 144.798,748.736C144.927,748.562 145.365,748.398 145.629,748.398C145.886,748.398 146.522,748.398 147.057,748.726C147.311,748.882 147.554,749.128 147.648,749.384L147.68,749.466L148.013,750.35L148.294,751.098L147.238,751.098L146.625,749.466L145.341,749.466L145.638,750.259ZM142.534,753.483L141.615,753.483L140.423,750.35L138.253,750.35L138.292,750.451C138.35,750.608 138.525,750.735 138.681,750.735L139.774,750.735L140.111,751.622C139.925,751.622 139.915,751.524 139.722,751.524L138.098,751.524C137.905,751.524 137.644,751.367 137.572,751.175L137.261,750.35L136.129,750.35C136.13,750.764 135.83,751.059 135.341,751.059C134.853,751.059 134.321,750.764 133.998,750.35L132.703,750.35L133.894,753.483L132.975,753.483L131.448,749.466L133.708,749.466C133.762,749.119 134.047,748.881 134.487,748.881C134.925,748.881 135.398,749.119 135.725,749.466L141.008,749.466L142.534,753.483ZM135.229,749.989C135.161,749.819 134.964,749.681 134.785,749.681C134.608,749.681 134.517,749.819 134.585,749.989C134.652,750.159 134.849,750.298 135.027,750.298C135.205,750.298 135.295,750.159 135.229,749.989M130.711,751.119L130.372,750.28L128.884,750.28L128.801,750.194L128.969,750.643L128.973,750.643L129.436,751.859C129.348,751.841 129.079,751.525 128.692,751.525L127.069,751.525C126.877,751.525 126.615,751.368 126.542,751.176L126.512,751.098L126.352,750.67L126.12,750.052L125.9,749.467L124.615,749.467L124.913,750.26C124.409,750.145 124.081,749.673 123.99,749.386C123.915,749.128 123.942,748.911 124.072,748.737C124.201,748.563 124.64,748.399 124.903,748.399C125.16,748.399 125.796,748.399 126.332,748.726C126.585,748.882 126.828,749.129 126.924,749.385L126.955,749.467L127.287,750.351L127.397,750.643L128.051,750.643L127.607,749.467L128.528,749.467L128.537,749.493L130.683,749.493C130.749,749.493 130.815,749.514 130.884,749.556C130.951,749.598 130.999,749.651 131.023,749.716L131.55,751.119L130.711,751.119ZM130.885,751.86C130.851,751.621 131.015,751.428 131.254,751.428C131.493,751.428 131.714,751.621 131.749,751.86C131.784,752.097 131.619,752.292 131.381,752.292C131.142,752.292 130.921,752.097 130.885,751.86M125.047,747.854C125.015,747.64 125.162,747.469 125.375,747.469C125.587,747.469 125.783,747.64 125.816,747.854C125.846,748.065 125.7,748.238 125.488,748.238C125.275,748.238 125.078,748.065 125.047,747.854M124.04,747.854C124.009,747.64 124.155,747.469 124.367,747.469C124.58,747.469 124.777,747.64 124.809,747.854C124.84,748.065 124.692,748.238 124.48,748.238C124.268,748.238 124.072,748.065 124.04,747.854" style="fill:rgb(181,152,90);fill-rule:nonzero;"/>
                <path d="M153.399,748.716C153.367,748.505 153.514,748.332 153.726,748.332C153.939,748.332 154.137,748.505 154.167,748.716C154.199,748.928 154.052,749.101 153.84,749.101C153.628,749.101 153.43,748.928 153.399,748.716M152.391,748.716C152.361,748.505 152.509,748.332 152.72,748.332C152.933,748.332 153.129,748.505 153.161,748.716C153.192,748.928 153.045,749.101 152.833,749.101C152.62,749.101 152.424,748.928 152.391,748.716M145.917,751.245C145.882,751.006 146.047,750.813 146.285,750.813C146.523,750.813 146.745,751.006 146.781,751.245C146.815,751.482 146.65,751.676 146.413,751.676C146.174,751.676 145.953,751.482 145.917,751.245M138.183,752.702C137.944,752.702 137.723,752.509 137.688,752.271C137.683,752.239 137.682,752.206 137.684,752.173L137.684,752.172C137.684,752.1 137.195,752.076 137.195,752.076L137.072,751.726C137.072,751.726 137.68,751.783 138.094,751.841C138.112,751.843 138.13,751.845 138.147,751.849L138.149,751.849L138.148,751.849C138.349,751.891 138.521,752.064 138.55,752.271C138.586,752.509 138.421,752.702 138.183,752.702M138.251,752.266C138.24,752.184 138.163,752.118 138.082,752.118C138.001,752.118 137.944,752.184 137.956,752.266C137.968,752.346 138.045,752.413 138.126,752.413C138.207,752.413 138.263,752.346 138.251,752.266" style="fill:rgb(181,152,90);fill-rule:nonzero;"/>
            </g>
        </g>
        <g transform="matrix(2.964915,0,0,7.628735,7.016966,25.108709)">
            <path d="M0.619,87.964L3.116,80.012C5.833,71.342 13.358,69.685 23.23,69.685C33.102,69.685 39.595,71.342 36.871,80.012L34.375,87.964C31.658,96.634 24.14,98.284 14.254,98.284C4.389,98.284 -2.09,96.634 0.619,87.964M24.61,87.139L26.608,80.794C27.91,76.627 26.245,76.221 21.189,76.221C16.125,76.221 14.346,76.627 12.888,80.794L10.897,87.139C9.723,91.342 11.245,91.762 16.309,91.762C21.366,91.762 23.294,91.342 24.61,87.139M45.507,98.065L35.777,98.065L44.611,69.914L60.031,69.914L61.439,87.588L61.78,87.588L73.943,69.914L89.739,69.914L80.913,98.065L71.19,98.065L78.928,76.479L78.594,76.479L62.577,98.065L54.163,98.065L51.595,76.479L51.304,76.479L45.507,98.065ZM97.228,93.221L93.914,98.065L83.793,98.065L103.579,69.914L118.352,69.914L120.614,98.065L110.692,98.065L110.315,93.221L97.228,93.221ZM109.39,75.54L109.298,75.54L101.04,87.737L110.087,87.737L109.39,75.54ZM132.881,98.065L123.158,98.065L131.992,69.914L148.429,69.914L152.099,91.528L152.49,91.528L158.692,69.914L168.415,69.914L159.588,98.065L142.995,98.065L139.467,76.443L139.083,76.443L132.881,98.065ZM191.428,93.221L188.107,98.065L177.986,98.065L197.765,69.914L212.545,69.914L214.807,98.065L204.885,98.065L204.501,93.221L191.428,93.221ZM203.583,75.54L203.484,75.54L195.233,87.737L204.28,87.737L203.583,75.54ZM226.96,98.065L217.23,98.065L226.064,69.914L235.793,69.914L226.96,98.065ZM241.583,69.912L260.36,69.912C268.738,70.026 272.429,71.42 270.225,78.433C268.759,83.12 267.899,85.865 260.601,87.103L260.509,87.409C264.463,87.516 266.512,89.201 265.502,92.395L263.731,98.063L254.001,98.063L255.239,94.123C255.993,92.025 255.274,90.595 252.358,90.595L244.819,90.595L242.479,98.063L232.742,98.063L241.583,69.912ZM254.406,84.059C258.589,84.059 258.83,82.864 259.819,79.671C260.608,77.153 260.011,76.442 256.803,76.442L249.257,76.442L246.867,84.059L254.406,84.059Z" style="fill:rgb(167,169,172);fill-rule:nonzero;"/>
        </g>
    </g>
</svg>
