<svg xmlns="http://www.w3.org/2000/svg" height="800" width="1200" viewBox="-60 -24.571 520 147.426"><defs><clipPath id="a" clipPathUnits="userSpaceOnUse"><path d="M0 0h581.102v765.354H0z"/></clipPath></defs><path d="M287.6391 33.6325c0 25.5814 25.7653 29.0068 25.7653 64.6455 0 0 25.7785.8323 25.7785-17.1141 0-18.5246-53.8654-49.9494-42.7918-69.2756-8.4585 8.66-8.752 21.7442-8.752 21.7442" fill="#a7a9ac"/><path d="M297.7008 10.4778c-11.4897 20.3162 42.7437 52.5645 42.7437 69.6742 0 5.8785-.6045 9.9522-4.8798 12.4885 0 0 20.5396-9.4003 23.4263-22.0508v-6.334c-3.9555-20.2724-41.5741-35.941-41.9552-51.7629-.219-8.8659 8.3971-11.3145 8.3971-11.3145a54.9579 54.9579 0 00-3.7189-.127c-18.0384-.0044-24.0132 9.4265-24.0132 9.4265" fill="#a7a9ac"/><path d="M371.2034 6.8553c-13.4871 0-38.2581-5.2959-42.9013-5.2433-9.2689.1182-14.245 11.424-6.3472 20.0402 0 0 3.9686-4.4373 7.7664-5.734 5.274-1.8134 11.389-1.3666 18.9977-.9198 7.9329.46 17.504.9286 29.4449-1.1696C392.7199 11.2751 397.6127 5.5981 400 0c-5.839 4.836-15.305 6.8553-28.7966 6.8553" fill="#b5985a"/><path d="M378.7026 14.8144c-11.9452 2.0982-21.5076 1.6339-29.4448 1.1696-7.6131-.4468-13.7281-.8892-19.002.9242-3.8022 1.2922-7.6482 5.4273-7.6482 5.4273s9.628 10.0661 15.397 14.0172c3.7146-11.9365 27.2284-7.2364 36.839-10.6706 12.1117-4.3234 17.1973-11.5992 19.1203-16.4176l-.057-.022c-3.3335 2.3523-8.1256 4.3279-15.2043 5.572" fill="#b5985a"/><path d="M375.4787 26.4793c-10.3508 3.316-24.6659.7885-32.4936 5.3748-3.2634 1.9054-4.1876 5.217-4.1876 5.217s7.3546 5.9222 14.153 13.6755c0-1.8222.6263-4.744 2.9961-7.1137 4.2052-4.2052 27.1189-7.1225 31.3941-24.0395-3.2502 3.719-10.0354 6.299-11.862 6.886" fill="#b5985a"/><g clip-path="url(#a)" transform="matrix(6.71342 0 0 -6.71342 -832.1187 5080.3757)"><g fill="#b5985a"><path d="M162.7682 749.4662l1.525 4.017h-.919l-1.527-4.017zm-13.6035 0l1.527 4.017h-.919l-1.527-4.017zm-6.6782 0l1.527 4.017h-.92l-1.526-4.017zm19.3891 4.0169l-1.179-3.133h-.726l.126.337c.145.386-.049.699-.437.699h-2.557c-.158 0-.322-.052-.472-.14l.84 2.237h-.917l-1.178-3.133h-.602l.406 1.078h-.919l-.405-1.078h-2.254l.281.748h-1.055l-.644-1.714-.871.001c-.075-.257-.046-.475.082-.649.13-.174.384-.239.65-.239.255 0 .503.053.746.229.242.175.351.402.449.658l.031.082h10.025v.027l1.498 3.99zm-2.844-3.187h-2.762c.066.174.157.316.33.316h2.235c.174 0 .263-.142.197-.316m-13.3933-.037c-.502-.115-.831-.587-.923-.874-.075-.257-.046-.475.083-.649.129-.174.567-.338.831-.338.257 0 .893 0 1.428.328.254.156.497.402.591.658l.032.082.333.884.281.748h-1.056l-.613-1.632h-1.284zm-3.1046 3.224h-.919l-1.192-3.133h-2.17l.039.101c.058.157.233.284.389.284h1.093l.337.887c-.186 0-.196-.098-.389-.098h-1.624c-.193 0-.454-.157-.526-.349l-.311-.825h-1.132c.001.414-.299.709-.788.709-.488 0-1.02-.295-1.343-.709h-1.295l1.191 3.133h-.919l-1.527-4.017h2.26c.054-.347.339-.585.779-.585.438 0 .911.238 1.238.585h5.283zm-7.305-3.494c-.068-.17-.265-.308-.444-.308-.177 0-.268.138-.2.308.067.17.264.309.442.309s.268-.139.202-.309m-4.5178 1.1295l-.339-.839h-1.488l-.083-.086.168.449h.004l.463 1.216c-.088-.018-.357-.334-.744-.334h-1.623c-.192 0-.454-.157-.527-.349l-.03-.078-.16-.428-.232-.618-.22-.585h-1.285l.298.793c-.504-.115-.832-.587-.923-.874-.075-.258-.048-.475.082-.649.129-.174.568-.338.831-.338.257 0 .893 0 1.429.327.253.156.496.403.592.659l.031.082.332.884.11.292h.654l-.444-1.176h.921l.009.026h2.146c.066 0 .132.021.201.063.067.042.115.095.139.16l.527 1.403zm.1745.7417c-.034-.239.13-.432.369-.432s.46.193.495.432c.035.237-.13.432-.368.432-.239 0-.46-.195-.496-.432m-5.8388-4.0063c-.032-.214.115-.385.328-.385.212 0 .408.171.441.385.03.211-.116.384-.328.384-.213 0-.41-.173-.441-.384m-1.0069 0c-.031-.214.115-.385.327-.385.213 0 .41.171.442.385.031.211-.117.384-.329.384-.212 0-.408-.173-.44-.384"/><path d="M153.3992 748.7165c-.032-.212.115-.385.327-.385.213 0 .411.173.441.385.032.212-.115.384-.327.384-.212 0-.41-.172-.441-.384m-1.008 0c-.03-.212.118-.385.329-.385.213 0 .409.173.441.385.031.212-.116.384-.328.384-.213 0-.409-.172-.442-.384m-6.4746 2.5286c-.035-.239.13-.432.368-.432s.46.193.496.432c.034.237-.131.431-.368.431-.239 0-.46-.194-.496-.431m-7.7337 1.4572c-.239 0-.46-.193-.495-.431a.465.465 0 01-.004-.098v-.001c0-.072-.489-.096-.489-.096l-.123-.35s.608.057 1.022.115c.018.002.036.004.053.008h.002-.001c.201.042.373.215.402.422.036.238-.129.431-.367.431m.068-.436c-.011-.082-.088-.148-.169-.148-.081 0-.138.066-.126.148.012.08.089.147.17.147.081 0 .137-.067.125-.147"/></g></g><path d="M.6194 87.9637l2.4964-7.9517c2.717-8.67 10.2419-10.3272 20.114-10.3272 9.872 0 16.3656 1.6572 13.6415 10.3272l-2.4964 7.9517c-2.717 8.67-10.2348 10.32-20.121 10.32-9.865 0-16.3443-1.65-13.6345-10.32m23.9901-.825l1.9986-6.3443c1.3016-4.1679-.3627-4.5733-5.4196-4.5733-5.064 0-6.8422.4054-8.3002 4.5733l-1.9915 6.3442c-1.1735 4.2035.3485 4.6231 5.4126 4.6231 5.0569 0 6.9843-.4196 8.3001-4.623m20.8977 10.926h-9.7298l8.8336-28.1509h15.4197l1.4083 17.6743h.3414l12.1622-17.6743h15.7967l-8.8265 28.151H71.19l7.7383-21.5862h-.3343L62.577 98.0647h-8.414l-2.5676-21.5861h-.2916zm51.7208-4.8435l-3.3145 4.8435h-10.121l19.7868-28.1509h14.7725l2.2617 28.151h-9.9218l-.377-4.8436zm12.162-17.6815h-.0924l-8.2575 12.1978h9.047zm23.491 22.525h-9.7227l8.8336-28.1509h16.4368l3.67 21.6146h.3912l6.202-21.6146h9.7227l-8.8265 28.151h-16.5933l-3.5277-21.6218h-.384zm58.5472-4.8435l-3.3215 4.8435h-10.121l19.7796-28.1509h14.7796l2.2618 28.151h-9.9218l-.3841-4.8436zm12.155-17.6815h-.0995l-8.2504 12.1978h9.047zm23.3764 22.525H217.23l8.8336-28.1509h9.7297zm14.6231-28.1523h18.7768c8.3784.1138 12.0698 1.5078 9.865 8.5207-1.4653 4.687-2.3259 7.4324-9.6232 8.67l-.0924.3058c3.9545.1067 6.0028 1.7923 4.9929 4.9858l-1.771 5.6686h-9.7298l1.2376-3.9403c.7539-2.0981.0355-3.5277-2.8806-3.5277h-7.5391l-2.34 7.468h-9.7369zm12.8237 14.1466c4.1821 0 4.424-1.195 5.4126-4.3884.7894-2.5178.192-3.229-3.0157-3.229h-7.5463l-2.3897 7.6174z" fill="#a7a9ac"/></svg>