<?xml version="1.0" encoding="UTF-8" standalone="no"?>
<!DOCTYPE svg PUBLIC "-//W3C//DTD SVG 1.1//EN" "http://www.w3.org/Graphics/SVG/1.1/DTD/svg11.dtd">
<svg width="100%" height="100%" viewBox="0 0 934 270" version="1.1" xmlns="http://www.w3.org/2000/svg" xmlns:xlink="http://www.w3.org/1999/xlink" xml:space="preserve" xmlns:serif="http://www.serif.com/" style="fill-rule:evenodd;clip-rule:evenodd;stroke-linejoin:round;stroke-miterlimit:2;">
    <g id="Artboard1" transform="matrix(0.778333,0,0,0.3375,0,0)">
        <rect x="0" y="0" width="1200" height="800" style="fill:none;"/>
        <g transform="matrix(4.012391,0,0,9.253267,7.016966,14.105452)">
            <path d="M54.234,74.07C53.602,74.113 52.989,74.151 52.356,74.151C51.641,74.151 50.948,74.09 50.233,74.07L52.315,69.049L54.234,74.07ZM56.541,79.764C56.909,79.744 57.481,79.644 58.051,79.644C58.623,79.644 59.338,79.744 59.645,79.764C58.725,77.784 57.376,74.701 56.602,72.925C55.866,71.213 54.642,68.354 53.664,65.557C53.439,65.618 53.233,65.661 53.01,65.661C52.765,65.661 52.56,65.618 52.335,65.557C51.847,67.231 50.66,69.885 48.6,74.501L46.232,79.764C46.516,79.724 46.804,79.644 47.149,79.644C47.476,79.644 47.867,79.724 48.13,79.764C48.455,78.602 49.109,76.906 49.761,75.337C50.578,75.294 51.395,75.255 52.211,75.255C53.09,75.255 53.948,75.294 54.828,75.337L55.682,77.501L56.541,79.764ZM61.434,70.477C61.434,73.967 61.434,77.337 61.209,79.764C61.661,79.746 62.231,79.644 62.678,79.644C63.148,79.644 63.639,79.746 64.109,79.764C63.945,78.111 63.905,75.906 63.905,72.866C63.905,70.802 63.905,67.273 64.129,65.761C63.639,65.822 63.13,65.886 62.678,65.886C62.374,65.886 61.616,65.804 61.23,65.761C61.434,67.739 61.434,69.19 61.434,70.477M73.575,72.825C75.434,72.477 77.128,71.313 77.128,69.049C77.128,68.191 76.801,67.353 76.19,66.76C75.314,65.924 74.31,65.761 72.984,65.761C72.514,65.761 70.146,65.863 69.617,65.863C68.575,65.863 68.043,65.804 67.575,65.761C67.716,68.395 67.716,68.681 67.716,71.356C67.716,75.293 67.696,75.743 67.535,79.764C67.984,79.705 68.475,79.644 68.94,79.644C69.453,79.644 69.901,79.723 70.309,79.764C70.309,79.235 70.228,76.601 70.228,76.008L70.228,73.111L70.718,73.111C71.822,74.662 73.084,76.458 74.126,78.072C74.433,78.54 74.882,79.296 75.189,79.764C75.802,79.682 76.047,79.644 76.844,79.644C77.578,79.644 78.089,79.705 78.659,79.764C77.373,78.154 76.82,77.439 75.209,75.173C74.903,74.744 74.453,74.069 74.147,73.642L73.575,72.825ZM70.228,66.864C70.534,66.842 71.29,66.76 71.679,66.76C72.351,66.76 73.027,66.864 73.575,67.273C74.29,67.802 74.433,68.538 74.433,69.396C74.433,70.72 73.679,72.214 71.638,72.214C71.106,72.214 70.616,72.171 70.228,72.151L70.228,66.864ZM84.208,74.989C83.251,72.151 81.923,68.171 81.29,65.762C80.779,65.843 80.331,65.884 79.861,65.884C79.371,65.884 78.676,65.804 78.268,65.762C78.989,67.659 79.69,69.565 80.372,71.477C81.312,74.131 81.923,75.97 82.659,78.212L83.168,79.765C83.454,79.705 83.779,79.644 84.005,79.644C84.23,79.644 84.434,79.683 84.78,79.765C85.107,78.704 85.495,77.398 85.783,76.561C86.576,74.233 86.68,73.906 87.722,71.009L88.333,69.315C88.558,69.967 88.946,71.009 89.169,71.661C89.394,72.294 90.436,75.418 90.681,76.113C91.008,77.031 91.088,77.294 91.844,79.765C92.028,79.744 92.414,79.644 92.722,79.644C93.008,79.644 93.231,79.705 93.538,79.765C94.314,77.337 94.396,77.092 95.538,73.825C96.662,70.639 97.355,68.824 98.579,65.762C98.272,65.843 97.97,65.884 97.661,65.884C97.273,65.884 96.948,65.823 96.723,65.762C95.987,68.416 95.622,69.703 95.029,71.456C94.069,74.313 93.946,74.64 93.356,76.193C92.702,74.438 92.068,72.66 91.476,70.866C91.151,69.885 89.902,65.804 89.884,65.762C89.6,65.823 89.394,65.884 88.985,65.884C88.621,65.884 88.351,65.804 88.088,65.762C87.475,68.252 85.311,74.254 85.107,74.805L84.596,76.131L84.208,74.989ZM104.807,74.07C104.173,74.113 103.562,74.151 102.927,74.151C102.214,74.151 101.519,74.09 100.806,74.07L102.886,69.049L104.807,74.07ZM107.112,79.764C107.481,79.744 108.054,79.644 108.624,79.644C109.196,79.644 109.911,79.744 110.215,79.764C109.298,77.784 107.949,74.701 107.173,72.925C106.437,71.213 105.213,68.354 104.235,65.557C104.01,65.618 103.805,65.661 103.581,65.661C103.337,65.661 103.131,65.618 102.906,65.557C102.418,67.231 101.233,69.885 99.171,74.501L96.803,79.764C97.091,79.724 97.375,79.644 97.722,79.644C98.049,79.644 98.435,79.724 98.703,79.764C99.028,78.602 99.684,76.906 100.336,75.337C101.151,75.294 101.968,75.255 102.784,75.255C103.662,75.255 104.519,75.294 105.397,75.337L106.255,77.501L107.112,79.764ZM115.681,74.294C115.681,74.112 115.804,73.888 115.947,73.64C116.805,72.171 117.6,70.639 118.519,69.17C118.824,68.679 120.315,66.313 120.624,65.761C120.397,65.843 120.173,65.886 119.766,65.886C119.314,65.886 118.906,65.822 118.579,65.761C117.11,68.988 116.783,69.68 115.05,72.662C113.315,69.621 112.538,68.009 111.476,65.761C110.885,65.863 110.291,65.886 109.802,65.886C109.353,65.886 108.883,65.843 108.129,65.761C109.189,67.537 110.926,70.355 111.966,72.151L113.17,74.233C113.17,75.5 113.109,78.173 113.049,79.764C113.436,79.723 114.008,79.644 114.414,79.644C114.884,79.644 115.356,79.723 115.826,79.764C115.743,77.866 115.681,76.765 115.681,75.048L115.681,74.294ZM121.8,76.704C121.7,77.683 121.677,77.949 121.33,79.009C122.066,79.377 123.394,80.051 125.147,80.051C128.884,80.051 130.333,77.665 130.333,75.581C130.333,75.008 130.19,73.803 129.334,72.885C128.741,72.231 128.128,72.009 126.557,71.396C124.763,70.701 123.719,70.292 123.719,68.803C123.719,67.599 124.516,66.598 126.128,66.598C127.413,66.598 128.498,67.211 128.803,68.374L129.089,68.374C129.273,67.599 129.313,67.436 129.722,66.434C128.721,65.987 127.822,65.599 126.332,65.599C122.636,65.599 121.575,67.885 121.575,69.679C121.575,71.375 122.17,72.417 124.148,73.294C124.718,73.539 125.68,73.905 126.25,74.152C126.639,74.314 127.926,74.884 127.926,76.498C127.926,77.969 126.861,79.052 125.251,79.052C124.046,79.052 123.024,78.746 122.086,76.704L121.8,76.704Z" style="fill:rgb(80,89,103);fill-rule:nonzero;"/>
        </g>
        <g transform="matrix(4.012391,0,0,9.253267,7.016966,14.105452)">
            <path d="M8.39,38.977C8.39,23.545 16.657,19.379 22.906,19.379C32.949,19.379 37.297,27.71 37.297,36.59C37.297,41.672 36.684,46.449 34.173,50.309C31.662,54.165 27.499,56.494 22.965,56.494C11.637,56.494 8.39,45.714 8.39,38.977M38.889,70.52C40.726,69.233 43.605,67.641 45.687,66.721L31.848,58.145C40.358,55.146 45.687,47.551 45.687,37.201C45.687,22.505 34.48,16.257 23.027,16.257C10.658,16.256 0,23.116 0,38.672C0,41.976 0.736,48.225 5.879,53.431C11.208,58.822 17.516,59.617 22.845,59.617C23.517,59.617 24.189,59.617 24.866,59.557L38.889,70.52ZM74.258,41.672C72.358,41.797 70.523,41.92 68.62,41.92C66.479,41.92 64.397,41.734 62.255,41.672L68.502,26.607L74.258,41.672ZM81.179,58.759C82.28,58.698 83.997,58.391 85.709,58.391C87.428,58.391 89.567,58.698 90.489,58.759C87.732,52.819 83.69,43.571 81.361,38.242C79.156,33.099 75.482,24.523 72.544,16.133C71.869,16.319 71.256,16.441 70.584,16.441C69.849,16.441 69.236,16.319 68.563,16.133C67.092,21.157 63.541,29.118 57.356,42.958L50.249,58.759C51.107,58.638 51.965,58.391 53.005,58.391C53.984,58.391 55.151,58.638 55.946,58.759C56.924,55.267 58.888,50.185 60.846,45.469C63.293,45.348 65.743,45.226 68.193,45.226C70.827,45.226 73.4,45.348 76.036,45.469L78.604,51.963L81.179,58.759ZM108.355,27.71C108.355,25.382 108.414,23.055 108.476,20.848C112.701,20.848 117.052,20.912 120.664,21.277C120.48,20.299 120.358,19.749 120.358,19.075C120.358,18.584 120.48,17.785 120.664,16.747C114.786,17.052 109.395,17.113 104.311,17.113C99.595,17.113 92.797,17.052 87.958,16.747C88.144,17.483 88.265,18.278 88.265,19.013C88.265,19.749 88.144,20.544 87.958,21.277C91.085,20.973 96.963,20.848 97.513,20.848L100.576,20.848C100.637,23.239 100.699,25.382 100.699,27.648L100.76,44.733C100.76,49.39 100.394,54.106 100.147,58.759C102.352,58.515 103.271,58.393 104.311,58.393C105.047,58.393 107.006,58.577 108.784,58.759C108.598,57.046 108.355,55.023 108.355,50.371L108.355,27.71ZM142.443,41.672C140.545,41.797 138.708,41.92 136.81,41.92C134.664,41.92 132.584,41.734 130.439,41.672L136.687,26.607L142.443,41.672ZM149.364,58.759C150.465,58.698 152.182,58.391 153.896,58.391C155.611,58.391 157.754,58.698 158.674,58.759C155.917,52.819 151.875,43.571 149.548,38.242C147.343,33.099 143.667,24.523 140.729,16.133C140.054,16.319 139.441,16.441 138.769,16.441C138.034,16.441 137.421,16.319 136.746,16.133C135.279,21.157 131.726,29.118 125.538,42.958L118.436,58.759C119.292,58.638 120.152,58.391 121.192,58.391C122.171,58.391 123.334,58.638 124.133,58.759C125.113,55.267 127.071,50.185 129.031,45.469C131.479,45.348 133.928,45.226 136.381,45.226C139.014,45.226 141.587,45.348 144.219,45.469L146.791,51.963L149.364,58.759ZM183.339,37.939C188.911,36.897 193.995,33.407 193.995,26.607C193.995,24.034 193.014,21.523 191.175,19.749C188.543,17.238 185.542,16.747 181.561,16.747C180.151,16.747 173.049,17.052 171.455,17.052C168.33,17.052 166.739,16.868 165.333,16.747C165.76,24.647 165.76,25.503 165.76,33.525C165.76,45.348 165.699,46.693 165.21,58.759C166.557,58.577 168.026,58.391 169.434,58.391C170.964,58.391 172.313,58.638 173.537,58.759C173.537,57.165 173.294,49.267 173.294,47.49L173.294,38.793L174.765,38.793C178.071,43.448 181.87,48.838 184.992,53.677C185.909,55.087 187.256,57.353 188.173,58.759C190.012,58.515 190.748,58.391 193.135,58.391C195.34,58.391 196.872,58.577 198.586,58.759C194.729,53.922 193.077,51.779 188.237,44.98C187.317,43.693 185.971,41.672 185.051,40.387L183.339,37.939ZM173.294,20.053C174.211,19.994 176.477,19.749 177.642,19.749C179.663,19.749 181.682,20.053 183.339,21.277C185.48,22.871 185.909,25.074 185.909,27.649C185.909,31.629 183.643,36.1 177.519,36.1C175.926,36.1 174.457,35.975 173.294,35.918L173.294,20.053Z" style="fill:rgb(92,6,50);fill-rule:nonzero;"/>
        </g>
        <g transform="matrix(4.012391,0,0,9.253267,7.016966,14.105452)">
            <path d="M274.889,38.055C274.889,38.45 269.346,38.82 261.432,39.13C260.034,38.337 258.974,37.54 258.197,36.854C267.795,37.193 274.889,37.612 274.889,38.055M269.204,24.694C269.204,25.023 264.558,25.332 257.915,25.598C258.867,25.042 259.848,24.482 260.878,23.92C265.896,24.151 269.204,24.419 269.204,24.694M219.707,53.438C216.632,53.475 213.934,53.489 211.828,53.489C208.796,53.489 206.339,52.556 206.339,51.397C206.339,50.244 208.795,49.311 211.828,49.311C214.513,49.311 218.15,49.339 222.322,49.392C220.708,51.722 219.942,53.122 219.87,53.209C219.823,53.277 219.764,53.356 219.707,53.438M221.364,56.237C222.377,57.461 223.35,58.49 224.651,59.616C224.651,59.616 225.142,60.317 226.631,59.716C228.147,59.099 229.433,58.26 230.881,56.316C235.111,56.388 239.596,56.482 244.012,56.582C244.376,57.111 245.113,58.206 246.023,59.557C233.714,59.876 220.354,60.066 213.511,60.066C210.66,60.066 208.347,59.181 208.347,58.098C208.347,57.009 210.66,56.13 213.511,56.13C215.595,56.13 218.28,56.145 221.353,56.179C221.353,56.199 221.356,56.219 221.364,56.237M216.602,66.502C214.072,66.502 212.023,65.723 212.023,64.763C212.023,63.8 214.072,63.02 216.602,63.02C223.294,63.02 237.013,63.224 248.762,63.557C249.328,64.369 249.894,65.176 250.432,65.917C238.335,66.273 223.611,66.502 216.602,66.502M255.624,72.084C245.757,72.517 228.791,72.807 221.741,72.807C219.757,72.807 218.145,72.188 218.145,71.438C218.145,70.682 219.757,70.067 221.741,70.067C228.484,70.067 244.32,70.333 254.314,70.731C254.766,71.216 255.207,71.671 255.624,72.084M229.881,75.785C235.703,75.785 253.425,76.224 253.425,76.755C253.425,77.295 235.701,77.73 229.881,77.73C228.747,77.73 227.83,77.295 227.83,76.755C227.83,76.224 228.747,75.785 229.881,75.785M229.946,39.951C222.618,40.076 216.053,40.145 211.827,40.145C208.797,40.145 206.339,39.212 206.339,38.055C206.339,36.901 208.797,35.963 211.827,35.963C216.736,35.963 224.801,36.057 233.544,36.222C232.316,37.437 231.116,38.68 229.946,39.951M265.886,30.606C270.179,30.839 272.881,31.094 272.881,31.36C272.881,31.652 269.611,31.932 264.552,32.181C265.633,31.368 265.87,30.659 265.886,30.606M213.512,33.324C210.659,33.324 208.346,32.445 208.346,31.358C208.346,30.273 210.659,29.391 213.512,29.391C219.362,29.391 229.973,29.534 240.617,29.769C239.358,30.83 238.12,31.917 236.904,33.028C227.562,33.216 218.682,33.324 213.512,33.324M245.323,25.991C234.44,26.267 222.65,26.436 216.601,26.436C214.072,26.436 212.024,25.658 212.024,24.695C212.024,23.733 214.072,22.95 216.601,22.95C223.277,22.95 236.963,23.159 248.696,23.49C248.112,23.915 247.523,24.34 246.927,24.785C246.383,25.19 245.848,25.588 245.323,25.991M221.741,19.387C219.756,19.387 218.144,18.776 218.144,18.018C218.144,17.262 219.756,16.646 221.741,16.646C229.225,16.646 247.893,16.977 257.375,17.449C256.77,17.846 256.165,18.257 255.554,18.669C245.672,19.096 228.776,19.387 221.741,19.387M211.262,46.855C208.177,46.855 205.671,45.904 205.671,44.725C205.671,43.555 208.177,42.6 211.262,42.6C215.13,42.6 220.919,42.657 227.466,42.758C226.359,44.058 225.287,45.388 224.252,46.746C219.039,46.816 214.482,46.855 211.262,46.855M227.831,12.698C227.831,12.161 228.748,11.726 229.882,11.726C235.702,11.726 253.426,12.161 253.426,12.698C253.426,13.232 235.704,13.669 229.882,13.669C228.748,13.669 227.831,13.232 227.831,12.698" style="fill:rgb(116,127,138);fill-rule:nonzero;"/>
        </g>
        <g transform="matrix(4.012391,0,0,9.253267,7.016966,14.105452)">
            <path d="M275.47,43.152C275.511,44.2 275.505,45.249 275.452,46.297C265.141,46.705 255.363,47.326 255.363,48.025C255.363,48.712 264.922,49.327 275.114,49.733C274.937,50.898 274.706,52.054 274.422,53.197C264.375,53.608 255.051,54.213 255.051,54.893C255.051,55.549 263.755,56.139 273.394,56.55C272.953,57.78 272.452,58.976 271.89,60.12C263.612,60.518 256.771,61.05 256.771,61.63C256.771,62.171 262.748,62.672 270.282,63.058C269.859,63.747 269.418,64.421 268.956,65.059C268.465,65.753 267.932,66.442 267.368,67.118C262.658,67.476 259.426,67.883 259.426,68.318C259.426,68.692 261.741,69.041 265.308,69.354C263.361,71.281 261.06,73.081 258.349,74.652C258.349,74.652 255.155,71.902 252.519,68.69C250.169,65.825 245.183,58.273 244.01,56.583C242.835,54.893 242.063,54.399 240.69,54.889C238.849,55.541 236.71,55.868 236.052,55.868C235.394,55.868 235.032,55.612 236.135,55.175C237.235,54.732 241.581,52.68 243.72,48.44C246.123,43.665 244.01,37.071 244.01,37.071C243.203,40.596 241.368,41.911 241.368,41.911C241.961,38.638 241.315,35.671 239.699,33.589L238.798,37.733C238.798,37.733 238.234,37.704 236.838,38.877C235.445,40.052 235.061,41.764 235.061,41.764C236.158,42.206 237.478,41.104 237.478,41.104C235.792,47.412 233.375,52.547 231.611,55.263C229.85,57.978 228.397,59.002 226.632,59.719C225.142,60.316 224.652,59.615 224.652,59.615C223.35,58.491 222.377,57.461 221.364,56.237C221.364,56.237 221.282,56.094 221.556,56.098C222.281,56.109 223.573,54.868 223.855,54.353C224.178,53.763 224.143,53.311 223.981,53.281C223.822,53.254 223.546,53.722 222.146,54.605C220.755,55.485 220.115,54.875 219.652,54.384C219.292,53.994 219.645,53.512 219.87,53.209C220.083,52.939 227.445,39.21 246.926,24.786C272.456,5.883 288.76,0.779 289.694,0.411C290.311,0.168 291.318,-0.153 291.547,0.082C291.801,0.347 291.925,0.56 291.89,0.868C291.858,1.175 291.694,1.332 290.513,1.853C280.713,6.171 269.273,13.368 262.773,17.557C254.779,21.451 247.147,27.013 246.869,27.146C246.254,27.528 246.708,28.084 247.08,27.851C260.578,18.873 276.404,12.757 293.893,7.746C294.729,7.509 295.186,7.509 295.325,7.693C295.483,7.898 295.55,8.131 295.575,8.388C295.597,8.709 295.331,8.878 294.614,9.158C275.826,16.138 261.978,22.622 253.071,28.615C253.071,28.615 252.149,29.171 252.137,29.815C252.133,30.06 252.631,30.088 252.631,30.088C257.09,30.168 263.05,30.43 265.887,30.595C265.887,30.595 265.482,32.032 262.767,33.188C260.67,34.083 258.729,33.94 256.808,33.957C256.381,33.948 256.019,34.38 256.361,34.839C256.532,35.068 260.619,41.648 275.47,43.152M139.319,77.559L136.801,77.559C136.801,77.559 136.462,76.01 137.374,75.418C138.289,74.817 139.319,74.355 139.319,74.355L139.319,77.559ZM151.264,71.76C151.264,71.76 149.734,72.639 148.765,73.501C147.803,74.355 148.964,74.68 148.964,74.68L148.964,77.559L141.659,77.559L141.659,67.483C141.659,67.483 138.996,69.931 138.747,70.256C138.489,70.604 139.38,70.918 139.38,70.918L139.229,71.873C139.229,71.873 138.169,72.422 136.881,73.293C135.602,74.153 134.654,75.25 134.654,76.01C134.654,76.773 134.331,79.764 134.331,79.764L151.264,79.764L151.264,71.76ZM136.141,68.076C136.975,68.076 137.564,67.747 137.564,67.083C137.564,66.417 137.173,65.953 136.142,65.953C135.224,65.953 134.979,66.353 134.979,67.083C134.979,67.818 135.298,68.076 136.142,68.076M139.256,68.076C140.098,68.076 140.668,67.747 140.668,67.083C140.668,66.417 140.281,65.953 139.256,65.953C138.334,65.953 138.093,66.353 138.093,67.083C138.093,67.818 138.41,68.076 139.256,68.076M143.974,80.63C143.062,80.63 142.811,81.02 142.811,81.754C142.811,82.481 143.134,82.747 143.974,82.747C144.807,82.747 145.398,82.416 145.398,81.754C145.398,81.086 145.014,80.63 143.974,80.63M147.21,80.63C146.299,80.63 146.05,81.02 146.05,81.754C146.05,82.481 146.381,82.747 147.21,82.747C148.056,82.747 148.637,82.416 148.637,81.754C148.637,81.086 148.255,80.63 147.21,80.63M183.699,67.878C184.538,67.878 185.127,67.557 185.127,66.893C185.127,66.233 184.739,65.761 183.699,65.761C182.789,65.761 182.542,66.161 182.542,66.893C182.542,67.624 182.867,67.878 183.699,67.878M186.933,67.878C187.767,67.878 188.351,67.557 188.351,66.893C188.351,66.233 187.963,65.761 186.933,65.761C186.018,65.761 185.775,66.161 185.775,66.893C185.775,67.624 186.087,67.878 186.933,67.878M195.863,68.151C195.407,68.546 195.54,69.018 196.118,68.952L196.118,79.778L198.517,79.778L198.517,66.302C198.517,66.302 196.31,67.759 195.863,68.151M186.222,74.222L184.669,74.222C184.669,73.37 186.222,72.898 186.222,72.898L186.222,74.222ZM175.999,76.01C175.999,76.402 175.981,77.042 175.962,77.559L162.409,77.559L162.409,75.176C162.762,74.259 163.359,74.153 164.283,74.153L174.191,74.153C176.33,74.153 175.999,75.279 175.999,76.01M191.85,68.94L191.85,77.559L188.623,77.559L188.623,69.733C188.623,69.733 187.963,69.986 187.058,70.387C186.161,70.793 182.916,72.111 182.916,73.893L182.916,75.953L186.222,75.953L186.222,77.559L178.38,77.559C178.386,77.181 178.394,76.625 178.394,75.81C178.394,73.241 176.206,71.844 174.258,71.844L165.192,71.844C163.604,71.844 162.838,72.228 162.409,72.667L162.409,66.032C162.409,66.032 160.993,67.028 159.953,67.818C158.915,68.609 159.953,69.14 159.953,69.14L159.953,77.559L156.982,77.559L156.918,70.334C156.918,70.334 154.85,71.844 154.258,72.304C153.68,72.761 154,73.17 154.648,73.17C154.648,73.17 154.53,78.505 154.53,79.764C154.53,81.031 153.481,82.477 151.281,81.819C151.281,81.819 150.582,81.954 151.162,82.481C151.74,83.007 152.439,83.407 153.222,83.407C154,83.407 156.853,82.87 156.853,79.764L194.24,79.764L194.24,66.294C194.24,66.294 192.04,67.747 191.586,68.141C191.13,68.535 191.263,69.01 191.849,68.94" style="fill:rgb(92,6,50);fill-rule:nonzero;"/>
        </g>
    </g>
</svg>
