<?xml version="1.0" encoding="UTF-8" standalone="no"?>
<!DOCTYPE svg PUBLIC "-//W3C//DTD SVG 1.1//EN" "http://www.w3.org/Graphics/SVG/1.1/DTD/svg11.dtd">
<svg width="100%" height="100%" viewBox="0 0 936 224" version="1.1" xmlns="http://www.w3.org/2000/svg" xmlns:xlink="http://www.w3.org/1999/xlink" xml:space="preserve" xmlns:serif="http://www.serif.com/" style="fill-rule:evenodd;clip-rule:evenodd;stroke-linejoin:round;stroke-miterlimit:2;">
    <g id="Artboard1" transform="matrix(0.78,0,0,0.28,0,0)">
        <rect x="0" y="0" width="1200" height="800" style="fill:none;"/>
        <g transform="matrix(1.536382,0,0,4.279921,8.284024,27.017726)">
            <path d="M748,60.054L747.953,60.111C758.349,70.554 765.165,84.647 766.263,100.507C768.711,135.501 742.353,165.824 707.401,168.268C690.958,169.426 675.551,164.2 663.569,154.72L663.517,154.782C675.944,166.341 692.947,172.967 711.227,171.685C746.188,169.259 772.551,138.913 770.117,103.938C768.877,86.252 760.498,70.734 748,60.054M635.535,132.3C633.495,133.43 633.062,135.12 634.097,137.74C635.047,140.113 636.537,141.158 638.141,140.488C639.418,139.994 639.636,138.884 639.114,136.045L638.881,134.925C638.364,132.096 638.269,130.895 638.611,129.661C638.938,128.289 639.721,127.425 640.917,126.951C643.784,125.788 646.499,127.577 648.113,131.612C649.855,135.969 648.915,139.25 645.513,140.669L644.653,138.533C647.031,137.526 647.639,135.296 646.343,132.139C645.327,129.543 643.666,128.394 641.953,129.092C640.543,129.652 640.234,130.929 640.746,133.872L640.95,135.12L641.121,136.202C641.496,138.367 641.543,139.155 641.335,140.09C641.055,141.243 640.325,142.093 639.128,142.558C636.438,143.635 633.826,142.064 632.364,138.419C630.802,134.46 631.652,131.536 634.671,130.188L635.535,132.3ZM643.637,113.797L643.68,116.157L627.337,116.508L627.275,114.172L633.697,114.025L634.604,114.025L635.425,114.015L634.879,113.427L634.31,112.857L627.08,105.02L627.01,101.902L633.726,109.368L643.372,101.261L643.419,104.237L635.259,111.001L637.903,113.925L643.637,113.797ZM640.975,83.986L647.285,86.203L646.52,88.425L640.202,86.203L628.909,89.621L629.849,86.92L636.879,84.95L637.733,84.727C638.08,84.613 638.303,84.58 638.91,84.433C638.364,83.768 638.241,83.631 637.666,82.814L633.342,76.961L634.234,74.369L640.975,83.986ZM642.663,65.395L640.328,63.472L649.703,51.995L652.048,53.898L648.592,58.137L658.912,66.591L656.443,69.629L646.105,61.175L642.663,65.395ZM669.062,48.657L671.089,52.146L679.501,47.21L681.043,49.825L669.224,56.723L660.969,42.596L672.613,35.77L674.146,38.39L665.882,43.232L667.643,46.256L675.224,41.822L676.644,44.233L669.062,48.657Z" style="fill:rgb(32,44,92);fill-rule:nonzero;"/>
        </g>
        <g transform="matrix(1.536382,0,0,4.279921,8.284024,27.017726)">
            <path d="M696.457,36.321C695.555,34.84 695.213,34.156 694.697,32.989C694.554,34.171 694.411,35.03 693.998,36.71L693.329,39.838L698.081,39.069L696.457,36.321ZM705.809,44.761L701.561,45.041L699.431,41.5L692.832,42.563L691.906,46.593L687.828,47.633L692.124,29.742L696.159,29.101L705.809,44.761ZM732.113,50.013L728.667,48.694L729.991,43.819C730.111,43.259 730.328,42.48 730.622,41.469C730.907,40.439 731.144,39.656 731.296,39.053C731.529,38.393 731.718,37.729 731.951,37.007L732.321,35.854C731.362,37.506 730.973,38.08 730.081,39.419C729.735,40.012 729.388,40.497 729.089,40.924L724.447,47.437L721.457,46.639L720.535,38.826C720.459,38.413 720.426,37.867 720.378,37.079C720.308,36.044 720.274,35.266 720.231,34.729C720.221,34.292 720.221,33.647 720.231,32.74L719.813,34.729C719.343,36.879 719.12,37.8 718.47,40.382L717.108,45.656L713.486,45.082L717.573,29.076L723.084,30.149L723.867,37.73C724.057,39.501 724.104,40.996 724.024,43.089C724.632,41.888 724.859,41.485 725.562,40.383C725.975,39.731 726.402,39.089 726.844,38.456L731.145,32.266L736.371,34.041L732.113,50.013ZM731.738,102.871C736.452,99.681 740.388,97.977 742.828,98.062C744.261,98.105 746.012,98.551 746.012,100.326C746.012,102.168 744.256,103.706 740.838,104.935C737.852,106.017 733.229,106.278 728.211,105.718C729.597,104.475 730.765,103.512 731.738,102.871M665.321,108.672C662.402,108.482 660.968,107.3 660.968,105.041C660.968,104.742 661.168,97.555 677.578,96.744C679.448,96.644 681.536,96.573 684.716,96.943L682.866,98.552L681.83,99.482C677.885,103.085 671.25,109.085 665.321,108.672M700.832,81.558C698.848,83.286 694.917,87.079 691.115,90.72L686.795,94.845C683.314,94.229 679.787,93.911 676.252,93.896C668.277,93.896 660.967,96.113 657.63,99.535C656.377,100.836 655.736,102.236 655.78,103.721C655.841,107.599 660.265,109.522 661.622,110.044C668.704,112.674 674.628,111.91 680.88,107.533C684.326,105.126 688.47,101.258 691.717,98.129C694.233,98.708 697.087,99.477 700.171,100.36L703.014,101.2C699.33,104.817 695.557,108.624 692.054,111.71L691.787,111.961C686.937,116.243 683.418,119.328 678.344,120.472C674.751,121.246 672.235,120.505 671.395,119.997L671.196,120.158C674.144,122.584 676.926,123.955 681.706,123.533C686.277,123.144 691.537,120.286 696.924,115.221L704.191,108.087L709.289,103.027L719.585,106.046L719.761,106.112L713.391,112.311L707.927,117.751C702.321,123.2 699.274,126.02 695.989,128.332C690.592,132.196 685.935,134.19 681.859,134.46C679.741,134.607 676.689,134.45 674.144,132.974L673.884,133.097C676.646,135.447 680.03,138.295 685.874,138.152C692.477,137.929 698.32,134.758 707.439,126.389C711.583,122.582 715.699,118.315 719.349,114.541L726.113,107.686C730.57,108.678 734.543,109.082 738.949,109.011C745.357,108.859 750.845,105.802 750.902,102.28C750.983,99.679 748.832,98.274 747.56,97.462C746.497,96.769 743.64,95.164 739.671,95.164C734.872,95.164 729.845,97.296 724.761,101.496L721.381,104.491L720.133,104.154L710.72,101.496C713.492,98.9 715.87,96.668 717.987,94.77C723.157,90.189 728.843,88.3 732.185,88.086C734.615,87.925 738.835,88.119 740.577,89.363L740.777,89.187C736.143,85.223 732.127,84.687 728.823,84.687C725.557,84.687 720.34,85.717 713.927,90.678C711.312,92.705 707.927,96.108 704.372,99.692L699.606,98.225L698.467,97.86L693.459,96.336L696.312,93.635C699.678,90.336 702.872,87.208 705.36,85.091C714.388,77.505 720.075,76.513 724.024,76.471C728.358,76.452 731.809,77.349 734.264,79.129L734.448,78.963C729.383,74.363 725.719,72.892 719.424,72.849C713.885,72.805 707.284,75.895 700.832,81.558M741.381,37.668C741.685,37.829 742.216,38.2 742.444,37.801C742.577,37.53 742.268,37.298 741.988,37.127L741.3,36.761L740.944,37.426L741.381,37.668ZM741.723,39.871L741.286,39.634L741.167,38.03L740.735,37.783L740.075,38.97L739.715,38.775L741.138,36.188L742.268,36.824C742.724,37.08 743.122,37.436 742.809,37.992C742.524,38.5 742.059,38.49 741.609,38.267L741.723,39.871ZM743.295,39.083C743.912,37.982 743.49,36.582 742.403,36.002C741.303,35.399 739.906,35.765 739.303,36.88C738.7,37.991 739.133,39.372 740.214,39.975C741.287,40.568 742.692,40.198 743.295,39.083M738.818,36.937C739.426,35.556 740.983,34.925 742.359,35.518C743.717,36.097 744.36,37.69 743.783,39.049C743.367,40.029 742.4,40.668 741.336,40.668C740.96,40.668 740.589,40.589 740.247,40.435C738.867,39.847 738.234,38.295 738.818,36.937" style="fill:rgb(32,44,92);fill-rule:nonzero;"/>
        </g>
        <g transform="matrix(1.536382,0,0,4.279921,8.284024,27.017726)">
            <path d="M260.026,96.761L266.406,90.11L260.026,83.498L253.684,90.11L260.026,96.761ZM220.435,0L214.036,6.646L220.436,13.263L226.791,6.646L220.435,0ZM243.411,96.761L249.777,90.11L243.411,83.498L236.965,90.11L243.411,96.761ZM237.08,0L230.705,6.646L237.08,13.263L243.531,6.646L237.08,0ZM380.132,59.716L357.684,59.716L357.684,58.126C357.684,38.972 372.57,27.305 380.132,25.245L380.132,59.716ZM551.436,13.078L551.436,59.858C551.436,62.526 551.18,64.771 550.24,66.361C549.086,68.283 547.055,69.893 543.177,69.893C539.299,69.893 537.248,68.284 536.077,66.361C535.127,64.771 534.847,62.526 534.847,59.858L534.847,26.098L523.853,26.098L523.853,59.715L510.096,59.715L510.096,26.15L499.183,26.15L499.183,59.715L485.436,59.715L485.436,26.098L474.514,26.098L474.514,59.715L432.334,59.715C420.164,58.87 417.32,52.372 417.32,46.334C417.32,37.851 424.844,34.576 433.065,34.576L450.97,34.576L450.97,26.098L435.073,26.098C422.147,26.098 411.325,31.414 411.325,44.862C411.325,53.61 415.255,57.579 418.678,59.715L390.994,59.715L390.994,18.043C367.065,21.015 348.078,38.891 348.078,68.246L380.133,68.246L380.133,78.571C380.133,82.549 380.579,90.167 374.783,91.255L374.783,95.821C378.823,95.384 385.364,92.679 388.25,87.775C390.51,83.968 390.994,80.498 390.994,72.505L390.994,68.247L525.24,68.247C525.699,69.383 526.28,70.465 526.973,71.475C530.324,76.108 536.253,78.178 543.179,78.178C550.024,78.178 555.9,76.108 559.247,71.475C562.024,67.545 562.337,63.657 562.337,58.929L562.337,13.079L551.437,13.079L551.436,13.078ZM577.637,13.079L588.484,13.079L588.484,68.247L577.637,68.247L577.637,13.079ZM313.266,25.898L297.587,25.898L297.587,34.457L310.727,34.457C320.875,34.457 331.28,34.955 331.28,46.718C331.28,57.18 323.604,59.539 309.891,59.539L283.546,59.539L283.546,68.079L311.851,68.079C328.921,68.079 337.289,62.848 337.289,46.77C337.29,30.583 327.364,25.898 313.266,25.898M232.456,59.717L210.166,59.717L210.166,58.279C210.166,39.239 224.852,27.239 232.456,25.184L232.456,59.717ZM260.026,59.717C260.026,62.442 259.726,64.64 258.777,66.287C257.623,68.205 255.635,69.776 251.733,69.776C247.903,69.776 245.837,68.205 244.665,66.287C243.711,64.64 243.412,62.442 243.412,59.717L243.412,18.007C217.38,20.466 200.529,41.029 200.529,68.243L233.781,68.243C234.262,69.332 234.85,70.371 235.537,71.343C238.85,75.971 244.77,78.05 251.653,78.05C258.603,78.05 264.417,75.971 267.726,71.343C270.569,67.451 270.921,63.582 270.921,58.807L270.921,22.413L260.027,22.413L260.027,59.717L260.026,59.717ZM364.48,173.617C353.718,173.617 345.63,171.367 340.66,166.597C336.25,162.5 334.218,157.839 334.218,148.526L334.218,109.63L345.881,109.63L345.881,150.173C345.881,156.144 346.802,159.548 349.661,162.61C352.736,165.928 358.038,167.722 364.481,167.722C370.883,167.722 376.152,165.927 379.238,162.61C382.086,159.548 382.979,156.145 382.979,150.173L382.979,109.63L394.723,109.63L394.723,148.526C394.723,157.839 392.644,162.501 388.277,166.597C383.287,171.367 375.145,173.617 364.479,173.617M440.71,166.85C438.375,166.85 433.291,166.594 431.121,164.828C429.346,163.295 429.303,160.803 429.303,157.053L429.303,113.596C447.265,112.001 467.15,117.308 467.15,140.947C467.15,159.872 454.846,166.85 440.71,166.85M438.446,108.335C432.698,108.478 418.542,109.099 408.218,112.08L409.186,116.723C411.977,115.94 414.593,115.38 417.616,114.886L417.616,172.28C434.14,172.603 441.232,172.546 449.89,171.549C465.08,169.717 479.425,158.3 479.425,140.761C479.425,116.068 457.348,107.965 438.446,108.335M495.565,109.634L507.305,109.634L507.305,172.283L495.565,172.283L495.565,109.634ZM278.6,145.053C284.572,145.053 295.736,145.855 303.682,152.183L289.404,122.938L278.6,145.053ZM326.572,172.285L313.282,172.285C308.592,162.782 296.359,149.002 276.052,150.336L265.362,172.285L257.074,172.285L289.808,108.616L293.966,108.616L326.572,172.285ZM540.808,145.052C546.784,145.052 557.944,145.868 565.871,152.196L551.612,122.946L540.808,145.052ZM588.774,172.289L575.484,172.289C570.788,162.786 558.556,149.02 538.244,150.344L527.559,172.289L519.28,172.289L551.991,108.615L556.182,108.615L588.774,172.289ZM247.834,111.765C244.474,109.994 236.081,107.398 227.418,107.545C212.109,107.934 201.904,114.177 201.799,125.46C201.733,127.691 202.221,130.525 203.584,132.955C210.989,145.643 241.668,143.559 241.668,157.154C241.668,161.042 237.956,167.426 227.418,167.426C215.959,167.426 207.23,162.133 203.048,158.853L200.029,168.038C203.584,169.87 213.154,173.359 226.891,173.359C233.052,173.359 240.049,171.693 245.171,167.706C250.136,163.809 252.372,159.01 252.372,153.076C252.372,130.586 213.154,136.239 213.154,122.113C213.154,119.778 214.445,118.102 214.901,117.528C217.028,114.77 221.684,113.104 227.571,113.104C233.053,113.104 238.825,114.95 244.554,119.508L247.834,111.765Z" style="fill:rgb(38,38,93);fill-rule:nonzero;"/>
        </g>
        <g transform="matrix(1.536382,0,0,4.279921,8.284024,27.017726)">
            <path d="M157.641,126.734L157.418,127.1C143.22,151.798 116.609,168.431 86.063,168.431C40.636,168.431 3.81,131.61 3.81,86.187C3.81,71.296 7.774,57.331 14.713,45.279L14.893,44.956L14.803,44.647L14.499,44.761L14.29,45.051C13.061,46.822 11.917,48.687 10.815,50.571C-11.765,89.993 2.157,140.41 41.921,163.204C81.671,185.998 132.231,172.527 154.791,133.123C155.899,131.239 156.916,129.303 157.838,127.322L158.014,126.938L157.919,126.615L157.641,126.734Z" style="fill:rgb(176,146,85);fill-rule:nonzero;"/>
        </g>
        <g transform="matrix(1.536382,0,0,4.279921,8.284024,27.017726)">
            <path d="M65.925,22.616C54.229,25.108 34.582,37.137 30.405,57.102C43.011,42.216 56.14,34.398 66.19,32.57C55.908,40.264 46.244,58.212 49.244,70.801C54.684,57.424 64.22,44.342 72.954,39.577C68.008,47.737 66.384,67.455 71.122,76.151C72.233,64.868 75.798,50.191 81.418,42.947L83.089,57.102L81.171,57.102L83.188,71.513L81.588,71.513L83.264,85.924L81.887,85.924L84.004,100.326L77.192,103.81L77.192,104.304L94.95,104.304L94.95,103.81L88.136,100.326L86.066,101.93L88.121,100.326L90.211,85.924L88.843,85.924L90.523,71.513L88.914,71.513L90.946,57.102L89.02,57.102L90.696,42.947C96.321,50.191 99.876,64.868 100.992,76.151C105.739,67.455 104.102,47.737 99.164,39.577C107.904,44.343 117.425,57.425 122.889,70.801C125.875,58.212 116.22,40.265 105.933,32.57C115.983,34.398 129.098,42.215 141.696,57.102C137.543,37.137 117.9,25.108 106.186,22.616C119.077,21.335 131.633,25.464 143.011,30.994C130.645,16.73 111.991,11.546 99.658,12.961C101.738,10.754 103.759,9.581 106.906,8.651C101.689,6.216 93.586,7.493 90.426,11.034C90.426,11.034 89.846,4.417 86.067,1.816C82.265,4.417 81.705,11.034 81.705,11.034C78.529,7.493 70.436,6.216 65.233,8.651C68.371,9.581 70.374,10.754 72.481,12.961C60.131,11.547 41.461,16.73 29.104,30.994C40.512,25.464 53.054,21.334 65.926,22.616" style="fill:rgb(176,146,85);fill-rule:nonzero;"/>
        </g>
        <g transform="matrix(1.536382,0,0,4.279921,8.284024,27.017726)">
            <path d="M89.581,114.578C88.608,115.219 87.397,116.035 86.059,116.951C84.892,116.152 83.72,115.361 82.542,114.578C77.312,111.065 33.104,81.483 13.993,102.412C31.628,95.415 57.759,108.626 79.276,121.594C73.888,125.278 67.751,129.507 62.548,133.039C54.284,125.026 51.218,126.308 50.472,126.626C49.665,126.963 49.095,127.713 49.057,128.634C49.043,129.844 49.973,130.86 51.15,130.893C52.337,130.922 53.338,129.948 53.357,128.743L53.31,128.249C55.598,129.692 57.725,131.638 63.07,137.145C68.5,142.775 70.613,144.322 72.212,145.262C73.313,145.903 74.434,146.064 75.122,146.007C76.242,145.955 77.363,145.143 77.415,143.876C77.481,142.618 76.546,141.578 75.331,141.569C74.141,141.541 73.128,142.513 73.128,143.767L73.128,143.976C71.652,142.903 70.071,140.971 66.919,137.563C72.099,134.606 78.691,130.338 86.059,125.748C93.42,130.338 100.009,134.606 105.189,137.563C102.046,140.971 100.465,142.903 98.974,143.976L98.979,143.767C98.979,143.759 98.979,143.75 98.979,143.742C98.979,142.55 97.998,141.569 96.806,141.569C96.793,141.569 96.78,141.569 96.767,141.569C95.547,141.579 94.621,142.618 94.697,143.876C94.749,145.143 95.855,145.955 96.985,146.007C97.669,146.064 98.785,145.903 99.905,145.262C101.505,144.322 103.611,142.774 109.051,137.145C114.382,131.639 116.527,129.692 118.801,128.249L118.758,128.743C118.791,129.949 119.783,130.922 120.951,130.893C122.128,130.86 123.073,129.844 123.059,128.634C123.021,127.747 122.466,126.96 121.644,126.626C120.899,126.308 117.828,125.026 109.564,133.03C104.365,129.508 98.204,125.278 92.835,121.595C114.357,108.627 140.493,95.416 158.118,102.413C139.006,81.484 94.803,111.066 89.581,114.578" style="fill:rgb(176,146,85);fill-rule:nonzero;"/>
        </g>
        <g transform="matrix(1.536382,0,0,4.279921,8.284024,27.017726)">
            <path d="M40.243,142.145C39.564,141.846 38.863,141.457 38.496,141.405C38.254,141.376 38.031,141.429 37.874,141.599C37.732,141.775 37.679,142.145 37.831,142.444C37.926,142.662 38.182,143.07 38.871,143.669C41.762,146.18 47.577,148.425 62.904,139.852C62.434,139.387 61.959,138.884 61.451,138.376C60.421,137.313 59.519,136.382 58.722,135.58C50.629,140.698 44.206,143.764 40.243,142.145M131.872,142.145C127.904,143.764 121.486,140.697 113.393,135.58C112.586,136.382 111.703,137.313 110.654,138.376C110.16,138.884 109.676,139.387 109.225,139.852C124.519,148.425 130.353,146.18 133.239,143.669C133.937,143.071 134.184,142.662 134.283,142.444C134.449,142.145 134.397,141.775 134.236,141.599C134.094,141.428 133.876,141.376 133.628,141.405C133.268,141.457 132.565,141.846 131.872,142.145" style="fill:rgb(176,146,85);fill-rule:nonzero;"/>
        </g>
    </g>
</svg>
