<svg xmlns="http://www.w3.org/2000/svg" height="800" width="1200" viewBox="-7.137345 -10.5 61.85699 63"><path d="M21 42c11.5633 0 21-9.3703 21-21C42 9.4367 32.6297 0 21 0 9.4367 0 0 9.3703 0 21s9.3703 21 21 21" fill="#ffe900"/><path fill="#1d1d1b" d="M40.9367 19.9367l1.9937-.5316 1.595 6.5126 3.0569-.731-.0665-1.7943-.8639.1994-1.1962-4.7848 2.1266-.5317-.5317-2.3924-2.1265.5317-.6646-2.6583-2.326 1.595.3988 1.6614-1.9937.5316.5317 2.3924"/><path d="M40.6044 17.7437c-.7974-.7975-1.9272-1.3291-3.3892-1.3291-3.1899 0-4.7184 2.5253-4.7184 4.6519 0 2.1265 1.5285 4.6519 4.7184 4.6519 3.1899 0 4.7183-2.5254 4.7183-4.652 0-.9303-.2658-1.8607-.7974-2.6582zm-1.329 3.3228c0 1.2626-.9305 2.193-2.1267 2.193-1.1297 0-2.1265-.9304-2.1265-2.193 0-1.2627.9303-2.193 2.1265-2.193 1.1962 0 2.1266.9303 2.1266 2.193m-6.845 0c0-2.1266-1.5284-4.652-4.7183-4.652-3.1898 0-4.7183 2.5254-4.7183 4.652 0 2.1265 1.5285 4.6519 4.7183 4.6519 3.1899 0 4.7184-2.5254 4.7184-4.652m-2.5918 0c0 1.2627-.9304 2.193-2.1266 2.193-1.1297 0-2.1266-.9303-2.1266-2.193 0-1.2626.9304-2.193 2.1266-2.193 1.1298 0 2.1266.9304 2.1266 2.193m-9.4367-.9968h2.6582c-.4652-2.1266-2.326-3.655-4.6519-3.655-2.5917 0-4.5854 2.06-4.5854 4.6519 0 2.5917 2.0601 4.6519 4.6519 4.6519 2.3924 0 4.1202-1.595 4.5854-3.5887H20.402c-.2658.5317-.7975 1.1962-1.8608 1.1962-1.2626 0-2.06-.9303-2.06-2.193 0-.598.1993-1.1962.598-1.595.3987-.3987.9304-.6645 1.5285-.598.9304-.133 1.462.5316 1.7943 1.1297m-9.3703-.9304h2.5918c-.1993-2.326-2.193-2.7246-3.3892-2.7246-1.7943 0-3.3893 1.1297-3.3893 2.9905 0 1.1962.9304 1.9272 2.0602 2.2595 1.6614.6645 2.326.731 2.326 1.329 0 .3988-.4653.6646-.9305.6646-.1329 0-.8639 0-.9968-.7974H6.712c.2658 2.326 2.2595 2.924 3.5886 2.924 1.9272 0 3.5886-1.1297 3.5886-3.057 0-1.8607-1.5949-2.3259-3.057-2.7246-.6645-.1994-1.329-.4652-1.329-.864 0-.2658.1993-.598.731-.598.731-.0665.7974.3987.7974.598" fill="#1d1d1b"/></svg>